<svg width="299" height="44" viewBox="0 0 299 44" fill="none" xmlns="http://www.w3.org/2000/svg">
<path d="M69.3097 14.2756C69.196 13.1297 68.7083 12.2396 67.8466 11.6051C66.9848 10.9706 65.8153 10.6534 64.3381 10.6534C63.3343 10.6534 62.4867 10.7955 61.7955 11.0795C61.1042 11.3542 60.5739 11.7377 60.2045 12.2301C59.8447 12.7225 59.6648 13.2812 59.6648 13.9062C59.6458 14.4271 59.7547 14.8816 59.9915 15.2699C60.2377 15.6581 60.5739 15.9943 61 16.2784C61.4261 16.553 61.9186 16.7945 62.4773 17.0028C63.036 17.2017 63.6326 17.3722 64.267 17.5142L66.8807 18.1392C68.1496 18.4233 69.3144 18.8021 70.375 19.2756C71.4356 19.7491 72.3542 20.3314 73.1307 21.0227C73.9072 21.714 74.5085 22.5284 74.9347 23.4659C75.3703 24.4034 75.5928 25.4782 75.6023 26.6903C75.5928 28.4706 75.1383 30.0142 74.2386 31.321C73.3485 32.6184 72.0606 33.6269 70.375 34.3466C68.6989 35.0568 66.6771 35.4119 64.3097 35.4119C61.9612 35.4119 59.9157 35.0521 58.1733 34.3324C56.4403 33.6127 55.0862 32.5473 54.1108 31.1364C53.1449 29.7159 52.6383 27.9593 52.5909 25.8665H58.5426C58.6089 26.8419 58.8883 27.6562 59.3807 28.3097C59.8826 28.9536 60.5502 29.4413 61.3835 29.7727C62.2263 30.0947 63.178 30.2557 64.2386 30.2557C65.2803 30.2557 66.1847 30.1042 66.9517 29.8011C67.7282 29.4981 68.3295 29.0767 68.7557 28.5369C69.1818 27.9972 69.3949 27.3769 69.3949 26.6761C69.3949 26.0227 69.2008 25.4735 68.8125 25.0284C68.4337 24.5833 67.875 24.2045 67.1364 23.892C66.4072 23.5795 65.5123 23.2955 64.4517 23.0398L61.2841 22.2443C58.8314 21.6477 56.8949 20.715 55.4744 19.446C54.054 18.1771 53.3485 16.4678 53.358 14.3182C53.3485 12.5568 53.8172 11.018 54.7642 9.7017C55.7206 8.38542 57.0322 7.35795 58.6989 6.61932C60.3655 5.88068 62.2595 5.51136 64.3807 5.51136C66.5398 5.51136 68.4242 5.88068 70.0341 6.61932C71.6534 7.35795 72.9129 8.38542 73.8125 9.7017C74.7121 11.018 75.1761 12.5426 75.2045 14.2756H69.3097ZM85.8473 35.4119C84.4553 35.4119 83.2147 35.1705 82.1257 34.6875C81.0367 34.1951 80.175 33.4706 79.5405 32.5142C78.9155 31.5483 78.603 30.3456 78.603 28.9062C78.603 27.6941 78.8255 26.6761 79.2706 25.8523C79.7157 25.0284 80.3217 24.3655 81.0888 23.8636C81.8558 23.3617 82.727 22.983 83.7024 22.7273C84.6873 22.4716 85.7195 22.2917 86.799 22.1875C88.0679 22.0549 89.0907 21.9318 89.8672 21.8182C90.6437 21.6951 91.2072 21.5152 91.5575 21.2784C91.9079 21.0417 92.0831 20.6913 92.0831 20.2273V20.142C92.0831 19.2424 91.799 18.5464 91.2308 18.054C90.6721 17.5616 89.8767 17.3153 88.8445 17.3153C87.7554 17.3153 86.889 17.5568 86.245 18.0398C85.6011 18.5133 85.175 19.1098 84.9666 19.8295L79.37 19.375C79.6541 18.0492 80.2128 16.9034 81.0462 15.9375C81.8795 14.9621 82.9543 14.214 84.2706 13.6932C85.5964 13.1629 87.1304 12.8977 88.8729 12.8977C90.085 12.8977 91.245 13.0398 92.353 13.3239C93.4704 13.608 94.46 14.0483 95.3217 14.6449C96.1929 15.2415 96.8795 16.0085 97.3814 16.946C97.8833 17.8741 98.1342 18.9867 98.1342 20.2841V35H92.3956V31.9744H92.2251C91.8748 32.6562 91.406 33.2576 90.8189 33.7784C90.2318 34.2898 89.5263 34.6922 88.7024 34.9858C87.8786 35.2699 86.9268 35.4119 85.8473 35.4119ZM87.5803 31.2358C88.4704 31.2358 89.2564 31.0606 89.9382 30.7102C90.62 30.3504 91.1551 29.8674 91.5433 29.2614C91.9316 28.6553 92.1257 27.9687 92.1257 27.2017V24.8864C91.9363 25.0095 91.6759 25.1231 91.3445 25.2273C91.0225 25.322 90.6579 25.4119 90.2507 25.4972C89.8435 25.5729 89.4363 25.6439 89.0291 25.7102C88.6219 25.767 88.2526 25.8191 87.9212 25.8665C87.2109 25.9706 86.5907 26.1364 86.0604 26.3636C85.5301 26.5909 85.1181 26.8987 84.8246 27.2869C84.531 27.6657 84.3842 28.1392 84.3842 28.7074C84.3842 29.5312 84.6825 30.161 85.2791 30.5966C85.8852 31.0227 86.6522 31.2358 87.5803 31.2358ZM108.88 5.90909V35H102.829V5.90909H108.88ZM113.727 35V13.1818H119.778V35H113.727ZM116.767 10.3693C115.867 10.3693 115.096 10.071 114.452 9.47443C113.817 8.86837 113.5 8.14394 113.5 7.30114C113.5 6.4678 113.817 5.75284 114.452 5.15625C115.096 4.55019 115.867 4.24716 116.767 4.24716C117.667 4.24716 118.434 4.55019 119.068 5.15625C119.712 5.75284 120.034 6.4678 120.034 7.30114C120.034 8.14394 119.712 8.86837 119.068 9.47443C118.434 10.071 117.667 10.3693 116.767 10.3693ZM130.677 22.3864V35H124.626V13.1818H130.393V17.0312H130.648C131.131 15.7623 131.941 14.7585 133.077 14.0199C134.214 13.2718 135.592 12.8977 137.211 12.8977C138.726 12.8977 140.047 13.2292 141.174 13.892C142.301 14.5549 143.177 15.5019 143.802 16.733C144.427 17.9545 144.739 19.4129 144.739 21.108V35H138.688V22.1875C138.698 20.8523 138.357 19.8106 137.665 19.0625C136.974 18.3049 136.022 17.9261 134.81 17.9261C133.996 17.9261 133.276 18.1013 132.651 18.4517C132.036 18.8021 131.553 19.3134 131.202 19.9858C130.862 20.6487 130.686 21.4489 130.677 22.3864ZM159.338 43.6364C157.378 43.6364 155.697 43.3665 154.295 42.8267C152.903 42.2964 151.795 41.572 150.972 40.6534C150.148 39.7348 149.613 38.7027 149.366 37.5568L154.963 36.804C155.134 37.2396 155.403 37.6468 155.773 38.0256C156.142 38.4044 156.63 38.7074 157.236 38.9347C157.851 39.1714 158.599 39.2898 159.48 39.2898C160.796 39.2898 161.881 38.9678 162.733 38.3239C163.595 37.6894 164.026 36.6241 164.026 35.1278V31.1364H163.77C163.505 31.7424 163.107 32.3153 162.577 32.8551C162.046 33.3949 161.365 33.8352 160.531 34.1761C159.698 34.517 158.704 34.6875 157.548 34.6875C155.91 34.6875 154.419 34.3087 153.074 33.5511C151.739 32.7841 150.673 31.6146 149.878 30.0426C149.092 28.4612 148.699 26.4631 148.699 24.0483C148.699 21.5767 149.101 19.5123 149.906 17.8551C150.711 16.1979 151.781 14.9574 153.116 14.1335C154.461 13.3097 155.934 12.8977 157.534 12.8977C158.756 12.8977 159.778 13.1061 160.602 13.5227C161.426 13.9299 162.089 14.4413 162.591 15.0568C163.102 15.6629 163.495 16.2595 163.77 16.8466H163.997V13.1818H170.006V35.2131C170.006 37.0691 169.551 38.6222 168.642 39.8722C167.733 41.1222 166.473 42.0597 164.864 42.6847C163.263 43.3191 161.421 43.6364 159.338 43.6364ZM159.466 30.142C160.441 30.142 161.265 29.9006 161.938 29.4176C162.619 28.9252 163.14 28.2244 163.5 27.3153C163.869 26.3968 164.054 25.2983 164.054 24.0199C164.054 22.7415 163.874 21.6335 163.514 20.696C163.154 19.7491 162.634 19.0152 161.952 18.4943C161.27 17.9735 160.441 17.7131 159.466 17.7131C158.472 17.7131 157.634 17.983 156.952 18.5227C156.27 19.053 155.754 19.7917 155.403 20.7386C155.053 21.6856 154.878 22.7794 154.878 24.0199C154.878 25.2794 155.053 26.3684 155.403 27.2869C155.763 28.196 156.279 28.9015 156.952 29.4034C157.634 29.8958 158.472 30.142 159.466 30.142ZM184.192 35V5.90909H195.84C197.98 5.90909 199.765 6.22633 201.195 6.8608C202.625 7.49527 203.7 8.37595 204.42 9.50284C205.139 10.6203 205.499 11.9081 205.499 13.3665C205.499 14.5028 205.272 15.5019 204.817 16.3636C204.363 17.2159 203.738 17.9167 202.942 18.4659C202.156 19.0057 201.257 19.3892 200.244 19.6165V19.9006C201.352 19.9479 202.388 20.2604 203.354 20.8381C204.33 21.4157 205.121 22.2254 205.727 23.267C206.333 24.2992 206.636 25.5303 206.636 26.9602C206.636 28.5038 206.252 29.8816 205.485 31.0938C204.728 32.2964 203.605 33.2481 202.119 33.9489C200.632 34.6496 198.799 35 196.621 35H184.192ZM190.343 29.9716H195.357C197.071 29.9716 198.321 29.6449 199.107 28.9915C199.893 28.3286 200.286 27.4479 200.286 26.3494C200.286 25.5445 200.092 24.8343 199.704 24.2188C199.316 23.6032 198.762 23.1203 198.042 22.7699C197.332 22.4195 196.484 22.2443 195.499 22.2443H190.343V29.9716ZM190.343 18.0824H194.903C195.746 18.0824 196.494 17.9356 197.147 17.642C197.81 17.339 198.331 16.9129 198.71 16.3636C199.098 15.8144 199.292 15.1562 199.292 14.3892C199.292 13.3381 198.918 12.4905 198.17 11.8466C197.431 11.2027 196.38 10.8807 195.016 10.8807H190.343V18.0824ZM216.746 35.4119C215.354 35.4119 214.113 35.1705 213.024 34.6875C211.935 34.1951 211.073 33.4706 210.439 32.5142C209.814 31.5483 209.501 30.3456 209.501 28.9062C209.501 27.6941 209.724 26.6761 210.169 25.8523C210.614 25.0284 211.22 24.3655 211.987 23.8636C212.754 23.3617 213.625 22.983 214.601 22.7273C215.586 22.4716 216.618 22.2917 217.697 22.1875C218.966 22.0549 219.989 21.9318 220.766 21.8182C221.542 21.6951 222.106 21.5152 222.456 21.2784C222.806 21.0417 222.982 20.6913 222.982 20.2273V20.142C222.982 19.2424 222.697 18.5464 222.129 18.054C221.571 17.5616 220.775 17.3153 219.743 17.3153C218.654 17.3153 217.787 17.5568 217.143 18.0398C216.5 18.5133 216.073 19.1098 215.865 19.8295L210.268 19.375C210.553 18.0492 211.111 16.9034 211.945 15.9375C212.778 14.9621 213.853 14.214 215.169 13.6932C216.495 13.1629 218.029 12.8977 219.771 12.8977C220.983 12.8977 222.143 13.0398 223.251 13.3239C224.369 13.608 225.358 14.0483 226.22 14.6449C227.091 15.2415 227.778 16.0085 228.28 16.946C228.782 17.8741 229.033 18.9867 229.033 20.2841V35H223.294V31.9744H223.124C222.773 32.6562 222.304 33.2576 221.717 33.7784C221.13 34.2898 220.425 34.6922 219.601 34.9858C218.777 35.2699 217.825 35.4119 216.746 35.4119ZM218.479 31.2358C219.369 31.2358 220.155 31.0606 220.837 30.7102C221.518 30.3504 222.054 29.8674 222.442 29.2614C222.83 28.6553 223.024 27.9687 223.024 27.2017V24.8864C222.835 25.0095 222.574 25.1231 222.243 25.2273C221.921 25.322 221.556 25.4119 221.149 25.4972C220.742 25.5729 220.335 25.6439 219.928 25.7102C219.52 25.767 219.151 25.8191 218.82 25.8665C218.109 25.9706 217.489 26.1364 216.959 26.3636C216.429 26.5909 216.017 26.8987 215.723 27.2869C215.429 27.6657 215.283 28.1392 215.283 28.7074C215.283 29.5312 215.581 30.161 216.178 30.5966C216.784 31.0227 217.551 31.2358 218.479 31.2358ZM239.778 22.3864V35H233.727V13.1818H239.494V17.0312H239.75C240.233 15.7623 241.043 14.7585 242.179 14.0199C243.315 13.2718 244.693 12.8977 246.312 12.8977C247.828 12.8977 249.149 13.2292 250.276 13.892C251.402 14.5549 252.278 15.5019 252.903 16.733C253.528 17.9545 253.841 19.4129 253.841 21.108V35H247.79V22.1875C247.799 20.8523 247.458 19.8106 246.767 19.0625C246.076 18.3049 245.124 17.9261 243.912 17.9261C243.098 17.9261 242.378 18.1013 241.753 18.4517C241.137 18.8021 240.654 19.3134 240.304 19.9858C239.963 20.6487 239.788 21.4489 239.778 22.3864ZM270.215 13.1818V17.7273H257.076V13.1818H270.215ZM260.059 7.95455H266.11V28.2955C266.11 28.8542 266.195 29.2898 266.366 29.6023C266.536 29.9053 266.773 30.1184 267.076 30.2415C267.388 30.3646 267.748 30.4261 268.156 30.4261C268.44 30.4261 268.724 30.4025 269.008 30.3551C269.292 30.2983 269.51 30.2557 269.661 30.2273L270.613 34.7301C270.31 34.8248 269.884 34.9337 269.335 35.0568C268.785 35.1894 268.118 35.2699 267.332 35.2983C265.873 35.3551 264.595 35.161 263.496 34.7159C262.407 34.2708 261.56 33.5795 260.954 32.642C260.348 31.7045 260.049 30.5208 260.059 29.0909V7.95455ZM288.148 25.7102V13.1818H294.2V35H288.39V31.0369H288.163C287.67 32.3153 286.851 33.3428 285.705 34.1193C284.569 34.8958 283.182 35.2841 281.543 35.2841C280.085 35.2841 278.802 34.9527 277.694 34.2898C276.586 33.6269 275.719 32.6847 275.094 31.4631C274.479 30.2415 274.166 28.7784 274.157 27.0739V13.1818H280.208V25.9943C280.218 27.2822 280.563 28.3002 281.245 29.0483C281.927 29.7964 282.841 30.1705 283.987 30.1705C284.716 30.1705 285.397 30.0047 286.032 29.6733C286.666 29.3324 287.178 28.8305 287.566 28.1676C287.964 27.5047 288.158 26.6856 288.148 25.7102Z" fill="#02A95C"/>
<path d="M69.3097 14.2756L69.1664 14.2898L69.1792 14.4196H69.3097V14.2756ZM61.7955 11.0795L61.8486 11.2134L61.8502 11.2127L61.7955 11.0795ZM60.2045 12.2301L60.0893 12.1437L60.0883 12.1451L60.2045 12.2301ZM59.6648 13.9062L59.8088 13.9115V13.9062H59.6648ZM59.9915 15.2699L59.8685 15.3449L59.8699 15.347L59.9915 15.2699ZM61 16.2784L60.9201 16.3982L60.922 16.3995L61 16.2784ZM62.4773 17.0028L62.427 17.1378L62.429 17.1385L62.4773 17.0028ZM64.267 17.5142L64.3005 17.3741L64.2985 17.3737L64.267 17.5142ZM66.8807 18.1392L66.8472 18.2793L66.8492 18.2797L66.8807 18.1392ZM70.375 19.2756L70.3163 19.4071L70.3163 19.4071L70.375 19.2756ZM73.1307 21.0227L73.2264 20.9152L73.2264 20.9152L73.1307 21.0227ZM74.9347 23.4659L74.8036 23.5255L74.8041 23.5266L74.9347 23.4659ZM75.6023 26.6903L75.7463 26.6911L75.7463 26.6892L75.6023 26.6903ZM74.2386 31.321L74.12 31.2394L74.1199 31.2396L74.2386 31.321ZM70.375 34.3466L70.4312 34.4792L70.4315 34.479L70.375 34.3466ZM58.1733 34.3324L58.1181 34.4654L58.1183 34.4655L58.1733 34.3324ZM54.1108 31.1364L53.9917 31.2173L53.9923 31.2182L54.1108 31.1364ZM52.5909 25.8665V25.7225H52.4436L52.4469 25.8697L52.5909 25.8665ZM58.5426 25.8665L58.6863 25.8567L58.6772 25.7225H58.5426V25.8665ZM59.3807 28.3097L59.2657 28.3963L59.2671 28.3982L59.3807 28.3097ZM61.3835 29.7727L61.3303 29.9065L61.3321 29.9072L61.3835 29.7727ZM66.9517 29.8011L66.8994 29.667L66.8988 29.6672L66.9517 29.8011ZM68.7557 28.5369L68.8687 28.6262L68.8687 28.6262L68.7557 28.5369ZM68.8125 25.0284L68.7028 25.1217L68.704 25.1231L68.8125 25.0284ZM67.1364 23.892L67.0796 24.0244L67.0803 24.0247L67.1364 23.892ZM64.4517 23.0398L64.4166 23.1794L64.418 23.1798L64.4517 23.0398ZM61.2841 22.2443L61.3192 22.1046L61.3181 22.1044L61.2841 22.2443ZM55.4744 19.446L55.3785 19.5534L55.3785 19.5534L55.4744 19.446ZM53.358 14.3182L53.502 14.3188L53.502 14.3174L53.358 14.3182ZM54.7642 9.7017L54.6477 9.61706L54.6473 9.61761L54.7642 9.7017ZM70.0341 6.61932L69.974 6.7502L69.9743 6.75033L70.0341 6.61932ZM73.8125 9.7017L73.6936 9.78296L73.6936 9.78296L73.8125 9.7017ZM75.2045 14.2756V14.4196H75.3509L75.3485 14.2732L75.2045 14.2756ZM69.453 14.2614C69.3356 13.0784 68.8293 12.1498 67.932 11.4892L67.7612 11.7211C68.5874 12.3294 69.0564 13.1811 69.1664 14.2898L69.453 14.2614ZM67.932 11.4892C67.0376 10.8307 65.8346 10.5094 64.3381 10.5094V10.7974C65.7961 10.7974 66.9321 11.1106 67.7612 11.7211L67.932 11.4892ZM64.3381 10.5094C63.3216 10.5094 62.4542 10.6531 61.7407 10.9464L61.8502 11.2127C62.5193 10.9378 63.347 10.7974 64.3381 10.7974V10.5094ZM61.7423 10.9457C61.0315 11.2281 60.4776 11.626 60.0893 12.1437L60.3197 12.3165C60.6701 11.8494 61.1768 11.4803 61.8486 11.2134L61.7423 10.9457ZM60.0883 12.1451C59.7099 12.6629 59.5208 13.2515 59.5208 13.9062H59.8088C59.8088 13.311 59.9795 12.7822 60.3208 12.3151L60.0883 12.1451ZM59.5209 13.901C59.5011 14.4458 59.615 14.9291 59.8685 15.3449L60.1144 15.1949C59.8944 14.8341 59.7906 14.4083 59.8087 13.9115L59.5209 13.901ZM59.8699 15.347C60.128 15.7541 60.4792 16.1043 60.9201 16.3982L61.0799 16.1586C60.6686 15.8844 60.3474 15.5622 60.1131 15.1928L59.8699 15.347ZM60.922 16.3995C61.3582 16.6806 61.8602 16.9264 62.427 17.1378L62.5276 16.8679C61.9769 16.6626 61.4941 16.4255 61.078 16.1574L60.922 16.3995ZM62.429 17.1385C62.9937 17.3395 63.596 17.5115 64.2356 17.6547L64.2985 17.3737C63.6692 17.2328 63.0783 17.0639 62.5256 16.8672L62.429 17.1385ZM64.2336 17.6543L66.8472 18.2793L66.9142 17.9991L64.3005 17.3741L64.2336 17.6543ZM66.8492 18.2797C68.1099 18.562 69.2654 18.9379 70.3163 19.4071L70.4337 19.1441C69.3634 18.6662 68.1893 18.2846 66.9121 17.9987L66.8492 18.2797ZM70.3163 19.4071C71.365 19.8752 72.2707 20.4499 73.0349 21.1303L73.2264 20.9152C72.4377 20.213 71.5063 19.6229 70.4337 19.1441L70.3163 19.4071ZM73.0349 21.1303C73.7966 21.8084 74.3858 22.6065 74.8036 23.5255L75.0658 23.4063C74.6312 22.4504 74.0178 21.6197 73.2264 20.9152L73.0349 21.1303ZM74.8041 23.5266C75.2296 24.4425 75.4489 25.4964 75.4583 26.6915L75.7463 26.6892C75.7367 25.46 75.5109 24.3643 75.0653 23.4052L74.8041 23.5266ZM75.4583 26.6896C75.4489 28.4446 75.0013 29.9592 74.12 31.2394L74.3573 31.4027C75.2752 30.0692 75.7367 28.4966 75.7463 26.6911L75.4583 26.6896ZM74.1199 31.2396C73.2476 32.5108 71.9831 33.5034 70.3185 34.2142L70.4315 34.479C72.1381 33.7504 73.4493 32.7259 74.3574 31.4025L74.1199 31.2396ZM70.3188 34.214C68.6649 34.9148 66.6633 35.2679 64.3097 35.2679V35.5559C66.6909 35.5559 68.7328 35.1988 70.4312 34.4792L70.3188 34.214ZM64.3097 35.2679C61.9756 35.2679 59.9495 34.9103 58.2283 34.1993L58.1183 34.4655C59.8819 35.1939 61.9468 35.5559 64.3097 35.5559V35.2679ZM58.2285 34.1994C56.5186 33.4893 55.1874 32.4406 54.2293 31.0545L53.9923 31.2182C54.9849 32.6541 56.3621 33.7361 58.1181 34.4654L58.2285 34.1994ZM54.2299 31.0554C53.2827 29.6625 52.7817 27.9344 52.7349 25.8632L52.4469 25.8697C52.4948 27.9842 53.0071 29.7693 53.9917 31.2173L54.2299 31.0554ZM52.5909 26.0105H58.5426V25.7225H52.5909V26.0105ZM58.3989 25.8762C58.4668 26.874 58.7534 27.7166 59.2657 28.3963L59.4957 28.223C59.0231 27.5959 58.7511 26.8097 58.6863 25.8567L58.3989 25.8762ZM59.2671 28.3982C59.7863 29.0643 60.4756 29.5666 61.3303 29.9065L61.4367 29.6389C60.6248 29.316 59.9789 28.8429 59.4943 28.2211L59.2671 28.3982ZM61.3321 29.9072C62.194 30.2365 63.1635 30.3997 64.2386 30.3997V30.1117C63.1926 30.1117 62.2587 29.9529 61.4349 29.6382L61.3321 29.9072ZM64.2386 30.3997C65.2938 30.3997 66.2169 30.2462 67.0046 29.9351L66.8988 29.6672C66.1524 29.9621 65.2668 30.1117 64.2386 30.1117V30.3997ZM67.0041 29.9353C67.7994 29.6249 68.4236 29.1899 68.8687 28.6262L68.6427 28.4477C68.2354 28.9635 67.6571 29.3713 66.8994 29.667L67.0041 29.9353ZM68.8687 28.6262C69.3153 28.0605 69.5389 27.4086 69.5389 26.6761H69.2509C69.2509 27.3452 69.0483 27.9339 68.6427 28.4477L68.8687 28.6262ZM69.5389 26.6761C69.5389 25.9919 69.3346 25.4079 68.921 24.9337L68.704 25.1231C69.0669 25.5391 69.2509 26.0536 69.2509 26.6761H69.5389ZM68.9222 24.9351C68.5244 24.4678 67.9445 24.0776 67.1925 23.7594L67.0803 24.0247C67.8055 24.3315 68.343 24.6989 68.7028 25.1217L68.9222 24.9351ZM67.1931 23.7597C66.4543 23.4431 65.5512 23.1567 64.4855 22.8998L64.418 23.1798C65.4734 23.4342 66.3601 23.716 67.0796 24.0244L67.1931 23.7597ZM64.4868 22.9001L61.3192 22.1047L61.249 22.384L64.4166 23.1794L64.4868 22.9001ZM61.3181 22.1044C58.8813 21.5116 56.9684 20.5875 55.5704 19.3386L55.3785 19.5534C56.8214 20.8424 58.7816 21.7838 61.2501 22.3842L61.3181 22.1044ZM55.5704 19.3386C54.1848 18.1009 53.4926 16.4331 53.502 14.3188L53.214 14.3175C53.2043 16.5025 53.9232 18.2533 55.3785 19.5534L55.5704 19.3386ZM53.502 14.3174C53.4926 12.5837 53.9535 11.0752 54.8811 9.7858L54.6473 9.61761C53.681 10.9608 53.2043 12.5299 53.214 14.319L53.502 14.3174ZM54.8807 9.78635C55.8205 8.49297 57.1109 7.4806 58.7572 6.75097L58.6405 6.48766C56.9535 7.23531 55.6208 8.27787 54.6477 9.61706L54.8807 9.78635ZM58.7572 6.75097C60.4027 6.0217 62.2763 5.65537 64.3807 5.65537V5.36736C62.2426 5.36736 60.3283 5.73966 58.6405 6.48766L58.7572 6.75097ZM64.3807 5.65537C66.5235 5.65537 68.3867 6.02189 69.974 6.7502L70.0941 6.48843C68.4618 5.73947 66.5561 5.36736 64.3807 5.36736V5.65537ZM69.9743 6.75033C71.5726 7.47938 72.8105 8.49079 73.6936 9.78296L73.9314 9.62045C73.0153 8.28005 71.7342 7.23653 70.0939 6.4883L69.9743 6.75033ZM73.6936 9.78296C74.5759 11.0739 75.0326 12.5706 75.0606 14.2779L75.3485 14.2732C75.3197 12.5146 74.8483 10.962 73.9314 9.62045L73.6936 9.78296ZM75.2045 14.1316H69.3097V14.4196H75.2045V14.1316ZM82.1257 34.6875L82.0664 34.8187L82.0673 34.8191L82.1257 34.6875ZM79.5405 32.5142L79.4196 32.5924L79.4205 32.5938L79.5405 32.5142ZM79.2706 25.8523L79.1439 25.7838L79.1439 25.7838L79.2706 25.8523ZM81.0888 23.8636L81.0099 23.7431L81.0099 23.7431L81.0888 23.8636ZM83.7024 22.7273L83.6662 22.5879L83.6659 22.588L83.7024 22.7273ZM86.799 22.1875L86.8128 22.3308L86.814 22.3307L86.799 22.1875ZM89.8672 21.8182L89.888 21.9607L89.8897 21.9604L89.8672 21.8182ZM91.5575 21.2784L91.4769 21.1591L91.4769 21.1591L91.5575 21.2784ZM91.2308 18.054L91.1356 18.162L91.1365 18.1628L91.2308 18.054ZM86.245 18.0398L86.3303 18.1558L86.3314 18.155L86.245 18.0398ZM84.9666 19.8295L84.955 19.9731L85.0722 19.9826L85.1049 19.8696L84.9666 19.8295ZM79.37 19.375L79.2292 19.3448L79.1948 19.5052L79.3584 19.5185L79.37 19.375ZM81.0462 15.9375L81.1552 16.0316L81.1557 16.031L81.0462 15.9375ZM84.2706 13.6932L84.3236 13.8271L84.3241 13.8269L84.2706 13.6932ZM92.353 13.3239L92.3172 13.4634L92.3175 13.4634L92.353 13.3239ZM95.3217 14.6449L95.2398 14.7633L95.2404 14.7637L95.3217 14.6449ZM97.3814 16.946L97.2544 17.014L97.2547 17.0145L97.3814 16.946ZM98.1342 35V35.144H98.2782V35H98.1342ZM92.3956 35H92.2516V35.144H92.3956V35ZM92.3956 31.9744H92.5396V31.8304H92.3956V31.9744ZM92.2251 31.9744V31.8304H92.1372L92.0971 31.9086L92.2251 31.9744ZM90.8189 33.7784L90.9135 33.887L90.9145 33.8861L90.8189 33.7784ZM88.7024 34.9858L88.7494 35.1219L88.7507 35.1214L88.7024 34.9858ZM89.9382 30.7102L90.004 30.8383L90.0054 30.8376L89.9382 30.7102ZM91.5433 29.2614L91.4221 29.1837L91.4221 29.1837L91.5433 29.2614ZM92.1257 24.8864H92.2697V24.621L92.0472 24.7656L92.1257 24.8864ZM91.3445 25.2273L91.3851 25.3654L91.3876 25.3647L91.3445 25.2273ZM90.2507 25.4972L90.2771 25.6388L90.2802 25.6381L90.2507 25.4972ZM89.0291 25.7102L89.049 25.8529L89.0523 25.8524L89.0291 25.7102ZM87.9212 25.8665L87.9008 25.7239L87.9003 25.724L87.9212 25.8665ZM86.0604 26.3636L86.1171 26.496L86.1171 26.496L86.0604 26.3636ZM84.8246 27.2869L84.9384 27.3752L84.9394 27.3738L84.8246 27.2869ZM85.2791 30.5966L85.1942 30.7129L85.1963 30.7144L85.2791 30.5966ZM85.8473 35.2679C84.472 35.2679 83.2519 35.0294 82.1841 34.5559L82.0673 34.8191C83.1776 35.3115 84.4385 35.5559 85.8473 35.5559V35.2679ZM82.185 34.5563C81.1196 34.0745 80.2793 33.3675 79.6605 32.4346L79.4205 32.5938C80.0706 33.5738 80.9538 34.3156 82.0664 34.8187L82.185 34.5563ZM79.6614 32.436C79.0548 31.4986 78.747 30.3248 78.747 28.9062H78.459C78.459 30.3664 78.7761 31.598 79.4196 32.5924L79.6614 32.436ZM78.747 28.9062C78.747 27.7112 78.9664 26.7183 79.3973 25.9207L79.1439 25.7838C78.6846 26.634 78.459 27.6771 78.459 28.9062H78.747ZM79.3973 25.9207C79.8312 25.1174 80.4211 24.4726 81.1676 23.9841L81.0099 23.7431C80.2224 24.2584 79.6001 24.9394 79.1439 25.7838L79.3973 25.9207ZM81.1676 23.9841C81.9204 23.4916 82.7771 23.1187 83.7389 22.8666L83.6659 22.588C82.677 22.8472 81.7912 23.2319 81.0099 23.7431L81.1676 23.9841ZM83.7386 22.8667C84.7157 22.613 85.7403 22.4343 86.8128 22.3308L86.7852 22.0442C85.6986 22.149 84.6589 22.3302 83.6662 22.5879L83.7386 22.8667ZM86.814 22.3307C88.0838 22.1981 89.1087 22.0747 89.888 21.9607L89.8463 21.6757C89.0726 21.7889 88.0521 21.9118 86.784 22.0443L86.814 22.3307ZM89.8897 21.9604C90.6722 21.8364 91.2611 21.6525 91.6381 21.3977L91.4769 21.1591C91.1532 21.3778 90.6152 21.5538 89.8446 21.676L89.8897 21.9604ZM91.6381 21.3977C92.0325 21.1313 92.2271 20.7336 92.2271 20.2273H91.9391C91.9391 20.6489 91.7833 20.9521 91.4769 21.1591L91.6381 21.3977ZM92.2271 20.2273V20.142H91.9391V20.2273H92.2271ZM92.2271 20.142C92.2271 19.2097 91.9311 18.4703 91.3251 17.9452L91.1365 18.1628C91.6669 18.6225 91.9391 19.2752 91.9391 20.142H92.2271ZM91.326 17.9459C90.7324 17.4227 89.8982 17.1713 88.8445 17.1713V17.4593C89.8551 17.4593 90.6118 17.7004 91.1356 18.162L91.326 17.9459ZM88.8445 17.1713C87.7352 17.1713 86.835 17.4173 86.1586 17.9246L86.3314 18.155C86.943 17.6963 87.7757 17.4593 88.8445 17.4593V17.1713ZM86.1597 17.9238C85.492 18.4147 85.0461 19.0372 84.8283 19.7895L85.1049 19.8696C85.3038 19.1825 85.7101 18.6118 86.3303 18.1558L86.1597 17.9238ZM84.9783 19.686L79.3817 19.2315L79.3584 19.5185L84.955 19.9731L84.9783 19.686ZM79.5108 19.4052C79.7902 18.1015 80.3386 16.978 81.1552 16.0316L80.9371 15.8434C80.087 16.8288 79.518 17.997 79.2292 19.3448L79.5108 19.4052ZM81.1557 16.031C81.9722 15.0753 83.0268 14.3402 84.3236 13.8271L84.2176 13.5593C82.8818 14.0878 81.7868 14.8489 80.9367 15.844L81.1557 16.031ZM84.3241 13.8269C85.6295 13.3047 87.1448 13.0417 88.8729 13.0417V12.7537C87.116 12.7537 85.5632 13.0211 84.2171 13.5595L84.3241 13.8269ZM88.8729 13.0417C90.0736 13.0417 91.2216 13.1824 92.3172 13.4634L92.3888 13.1844C91.2684 12.8971 90.0963 12.7537 88.8729 12.7537V13.0417ZM92.3175 13.4634C93.42 13.7437 94.3935 14.1774 95.2398 14.7633L95.4037 14.5265C94.5265 13.9192 93.5209 13.4722 92.3885 13.1843L92.3175 13.4634ZM95.2404 14.7637C96.0924 15.3471 96.7634 16.0967 97.2544 17.014L97.5083 16.8781C96.9956 15.9203 96.2935 15.1358 95.4031 14.5261L95.2404 14.7637ZM97.2547 17.0145C97.7429 17.9172 97.9902 19.0052 97.9902 20.2841H98.2782C98.2782 18.9682 98.0237 17.8309 97.5081 16.8775L97.2547 17.0145ZM97.9902 20.2841V35H98.2782V20.2841H97.9902ZM98.1342 34.856H92.3956V35.144H98.1342V34.856ZM92.5396 35V31.9744H92.2516V35H92.5396ZM92.3956 31.8304H92.2251V32.1184H92.3956V31.8304ZM92.0971 31.9086C91.755 32.5742 91.2974 33.1614 90.7233 33.6707L90.9145 33.8861C91.5146 33.3538 91.9945 32.7383 92.3532 32.0403L92.0971 31.9086ZM90.7243 33.6698C90.1524 34.168 89.4631 34.5619 88.6541 34.8501L88.7507 35.1214C89.5895 34.8226 90.3112 34.4116 90.9135 33.887L90.7243 33.6698ZM88.6555 34.8497C87.8498 35.1275 86.9145 35.2679 85.8473 35.2679V35.5559C86.9392 35.5559 87.9073 35.4123 88.7494 35.1219L88.6555 34.8497ZM87.5803 31.3798C88.4896 31.3798 89.2988 31.2007 90.004 30.8383L89.8724 30.5821C89.214 30.9205 88.4512 31.0918 87.5803 31.0918V31.3798ZM90.0054 30.8376C90.7076 30.467 91.2619 29.9675 91.6646 29.339L91.4221 29.1837C91.0482 29.7673 90.5324 30.2338 89.871 30.5829L90.0054 30.8376ZM91.6646 29.339C92.0687 28.7083 92.2697 27.9944 92.2697 27.2017H91.9817C91.9817 27.9431 91.7945 28.6024 91.4221 29.1837L91.6646 29.339ZM92.2697 27.2017V24.8864H91.9817V27.2017H92.2697ZM92.0472 24.7656C91.873 24.8789 91.6262 24.9878 91.3013 25.0899L91.3876 25.3647C91.7256 25.2584 91.9996 25.1401 92.2042 25.0071L92.0472 24.7656ZM91.3038 25.0891C90.9863 25.1825 90.6255 25.2716 90.2212 25.3562L90.2802 25.6381C90.6903 25.5523 91.0587 25.4614 91.3851 25.3654L91.3038 25.0891ZM90.2244 25.3556C89.8182 25.4311 89.4121 25.502 89.006 25.5681L89.0523 25.8524C89.4605 25.7859 89.8688 25.7147 90.2771 25.6387L90.2244 25.3556ZM89.0092 25.5676C88.6019 25.6244 88.2324 25.6765 87.9008 25.7239L87.9415 26.009C88.2728 25.9617 88.6419 25.9096 89.049 25.8528L89.0092 25.5676ZM87.9003 25.724C87.1806 25.8296 86.5478 25.9981 86.0036 26.2313L86.1171 26.496C86.6336 26.2747 87.2413 26.1117 87.9421 26.009L87.9003 25.724ZM86.0036 26.2313C85.4546 26.4666 85.0209 26.7884 84.7097 27.2001L84.9394 27.3738C85.2153 27.0089 85.6055 26.7152 86.1171 26.496L86.0036 26.2313ZM84.7108 27.1987C84.3942 27.6072 84.2402 28.1134 84.2402 28.7074H84.5282C84.5282 28.165 84.6679 27.7242 84.9384 27.3751L84.7108 27.1987ZM84.2402 28.7074C84.2402 29.5711 84.5558 30.2468 85.1942 30.7129L85.364 30.4803C84.8093 30.0752 84.5282 29.4914 84.5282 28.7074H84.2402ZM85.1963 30.7144C85.8321 31.1615 86.6301 31.3798 87.5803 31.3798V31.0918C86.6743 31.0918 85.9382 30.884 85.3619 30.4788L85.1963 30.7144ZM108.88 5.90909H109.024V5.76509H108.88V5.90909ZM108.88 35V35.144H109.024V35H108.88ZM102.829 35H102.685V35.144H102.829V35ZM102.829 5.90909V5.76509H102.685V5.90909H102.829ZM108.736 5.90909V35H109.024V5.90909H108.736ZM108.88 34.856H102.829V35.144H108.88V34.856ZM102.973 35V5.90909H102.685V35H102.973ZM102.829 6.05309H108.88V5.76509H102.829V6.05309ZM113.727 35H113.583V35.144H113.727V35ZM113.727 13.1818V13.0378H113.583V13.1818H113.727ZM119.778 13.1818H119.922V13.0378H119.778V13.1818ZM119.778 35V35.144H119.922V35H119.778ZM114.452 9.47443L114.352 9.57857L114.354 9.58006L114.452 9.47443ZM114.452 5.15625L114.55 5.26116L114.55 5.26111L114.452 5.15625ZM119.068 5.15625L118.969 5.26039L118.97 5.26189L119.068 5.15625ZM119.068 9.47443L119.167 9.57934L119.167 9.57929L119.068 9.47443ZM113.871 35V13.1818H113.583V35H113.871ZM113.727 13.3258H119.778V13.0378H113.727V13.3258ZM119.634 13.1818V35H119.922V13.1818H119.634ZM119.778 34.856H113.727V35.144H119.778V34.856ZM116.767 10.2253C115.903 10.2253 115.166 9.94005 114.55 9.3688L114.354 9.58006C115.025 10.202 115.832 10.5133 116.767 10.5133V10.2253ZM114.551 9.3703C113.944 8.79016 113.644 8.10282 113.644 7.30114H113.356C113.356 8.18505 113.691 8.94658 114.352 9.57856L114.551 9.3703ZM113.644 7.30114C113.644 6.5095 113.943 5.83191 114.55 5.26116L114.353 5.05134C113.691 5.67377 113.356 6.4261 113.356 7.30114H113.644ZM114.55 5.26111C115.167 4.68067 115.903 4.39116 116.767 4.39116V4.10315C115.831 4.10315 115.024 4.4197 114.353 5.05139L114.55 5.26111ZM116.767 4.39116C117.631 4.39116 118.362 4.68062 118.969 5.26038L119.168 5.05212C118.506 4.41976 117.703 4.10315 116.767 4.10315V4.39116ZM118.97 5.26189C119.587 5.83286 119.89 6.51025 119.89 7.30114H120.178C120.178 6.42535 119.838 5.67282 119.166 5.05061L118.97 5.26189ZM119.89 7.30114C119.89 8.10209 119.586 8.78921 118.969 9.36957L119.167 9.57929C119.838 8.94753 120.178 8.18579 120.178 7.30114H119.89ZM118.97 9.36952C118.363 9.9401 117.631 10.2253 116.767 10.2253V10.5133C117.702 10.5133 118.505 10.2019 119.167 9.57934L118.97 9.36952ZM130.677 22.3864L130.533 22.3849V22.3864H130.677ZM130.677 35V35.144H130.821V35H130.677ZM124.626 35H124.482V35.144H124.626V35ZM124.626 13.1818V13.0378H124.482V13.1818H124.626ZM130.393 13.1818H130.537V13.0378H130.393V13.1818ZM130.393 17.0312H130.249V17.1753H130.393V17.0312ZM130.648 17.0312V17.1753H130.748L130.783 17.0825L130.648 17.0312ZM133.077 14.0199L133.156 14.1406L133.157 14.1402L133.077 14.0199ZM141.174 13.892L141.247 13.7679L141.174 13.892ZM143.802 16.733L143.673 16.7981L143.674 16.7985L143.802 16.733ZM144.739 35V35.144H144.883V35H144.739ZM138.688 35H138.544V35.144H138.688V35ZM138.688 22.1875L138.544 22.1865V22.1875H138.688ZM137.665 19.0625L137.559 19.1596L137.56 19.1602L137.665 19.0625ZM132.651 18.4517L132.581 18.3261L132.58 18.3266L132.651 18.4517ZM131.202 19.9858L131.075 19.9192L131.074 19.9199L131.202 19.9858ZM130.533 22.3864V35H130.821V22.3864H130.533ZM130.677 34.856H124.626V35.144H130.677V34.856ZM124.77 35V13.1818H124.482V35H124.77ZM124.626 13.3258H130.393V13.0378H124.626V13.3258ZM130.249 13.1818V17.0312H130.537V13.1818H130.249ZM130.393 17.1753H130.648V16.8872H130.393V17.1753ZM130.783 17.0825C131.255 15.842 132.045 14.8626 133.156 14.1406L132.999 13.8991C131.837 14.6545 131.008 15.6826 130.514 16.98L130.783 17.0825ZM133.157 14.1402C134.265 13.4103 135.614 13.0417 137.211 13.0417V12.7537C135.569 12.7537 134.162 13.1333 132.998 13.8996L133.157 14.1402ZM137.211 13.0417C138.705 13.0417 140 13.3683 141.101 14.0162L141.247 13.7679C140.095 13.0901 138.748 12.7537 137.211 12.7537V13.0417ZM141.101 14.0162C142.203 14.6643 143.06 15.5902 143.673 16.7981L143.93 16.6678C143.294 15.4136 142.399 14.4455 141.247 13.7679L141.101 14.0162ZM143.674 16.7985C144.286 17.9956 144.595 19.4304 144.595 21.108H144.883C144.883 19.3953 144.568 17.9135 143.93 16.6674L143.674 16.7985ZM144.595 21.108V35H144.883V21.108H144.595ZM144.739 34.856H138.688V35.144H144.739V34.856ZM138.832 35V22.1875H138.544V35H138.832ZM138.832 22.1885C138.842 20.8284 138.494 19.7473 137.771 18.9648L137.56 19.1602C138.219 19.874 138.554 20.8761 138.544 22.1865L138.832 22.1885ZM137.772 18.9654C137.048 18.1725 136.055 17.7821 134.81 17.7821V18.0701C135.99 18.0701 136.9 18.4374 137.559 19.1596L137.772 18.9654ZM134.81 17.7821C133.975 17.7821 133.23 17.9621 132.581 18.3261L132.722 18.5773C133.322 18.2406 134.017 18.0701 134.81 18.0701V17.7821ZM132.58 18.3266C131.939 18.6916 131.437 19.2242 131.075 19.9192L131.33 20.0523C131.669 19.4027 132.133 18.9126 132.723 18.5769L132.58 18.3266ZM131.074 19.9199C130.721 20.6072 130.542 21.4306 130.533 22.3849L130.821 22.3878C130.83 21.4671 131.002 20.6901 131.33 20.0517L131.074 19.9199ZM154.295 42.8267L154.347 42.6923L154.347 42.6921L154.295 42.8267ZM150.972 40.6534L150.864 40.7496L150.864 40.7496L150.972 40.6534ZM149.366 37.5568L149.347 37.4141L149.193 37.4349L149.226 37.5871L149.366 37.5568ZM154.963 36.804L155.097 36.7515L155.056 36.6462L154.944 36.6613L154.963 36.804ZM155.773 38.0256L155.876 37.925L155.876 37.925L155.773 38.0256ZM157.236 38.9347L157.287 38.8002L157.286 38.7998L157.236 38.9347ZM162.733 38.3239L162.648 38.2079L162.646 38.209L162.733 38.3239ZM164.026 31.1364H164.17V30.9924H164.026V31.1364ZM163.77 31.1364V30.9924H163.676L163.638 31.0786L163.77 31.1364ZM162.577 32.8551L162.679 32.956L162.679 32.956L162.577 32.8551ZM153.074 33.5511L153.002 33.676L153.003 33.6766L153.074 33.5511ZM149.878 30.0426L149.749 30.1067L149.749 30.1076L149.878 30.0426ZM149.906 17.8551L149.777 17.7922L149.777 17.7922L149.906 17.8551ZM153.116 14.1335L153.041 14.0107L153.041 14.011L153.116 14.1335ZM160.602 13.5227L160.537 13.6512L160.538 13.6518L160.602 13.5227ZM162.591 15.0568L162.479 15.1478L162.481 15.1497L162.591 15.0568ZM163.77 16.8466L163.639 16.9076L163.678 16.9906H163.77V16.8466ZM163.997 16.8466V16.9906H164.141V16.8466H163.997ZM163.997 13.1818V13.0378H163.853V13.1818H163.997ZM170.006 13.1818H170.15V13.0378H170.006V13.1818ZM168.642 39.8722L168.526 39.7875L168.526 39.7875L168.642 39.8722ZM164.864 42.6847L164.812 42.5504L164.811 42.5508L164.864 42.6847ZM161.938 29.4176L162.022 29.5346L162.022 29.5344L161.938 29.4176ZM163.5 27.3153L163.366 27.2616L163.366 27.2623L163.5 27.3153ZM163.514 20.696L163.38 20.7472L163.38 20.7476L163.514 20.696ZM156.952 18.5227L157.04 18.6364L157.041 18.6356L156.952 18.5227ZM155.403 20.7386L155.538 20.7886L155.538 20.7886L155.403 20.7386ZM155.403 27.2869L155.269 27.3383L155.27 27.3399L155.403 27.2869ZM156.952 29.4034L156.866 29.5188L156.867 29.5201L156.952 29.4034ZM159.338 43.4924C157.39 43.4924 155.728 43.2241 154.347 42.6923L154.244 42.9611C155.666 43.5088 157.365 43.7804 159.338 43.7804V43.4924ZM154.347 42.6921C152.972 42.1683 151.884 41.4556 151.079 40.5573L150.864 40.7496C151.706 41.6884 152.835 42.4245 154.244 42.9613L154.347 42.6921ZM151.079 40.5573C150.271 39.6563 149.748 38.6466 149.507 37.5266L149.226 37.5871C149.477 38.7587 150.025 39.8134 150.864 40.7496L151.079 40.5573ZM149.386 37.6995L154.982 36.9467L154.944 36.6613L149.347 37.4141L149.386 37.6995ZM154.829 36.8565C155.007 37.3122 155.289 37.7353 155.67 38.1261L155.876 37.925C155.518 37.5582 155.26 37.167 155.097 36.7515L154.829 36.8565ZM155.67 38.1261C156.057 38.523 156.564 38.8364 157.185 39.0695L157.286 38.7998C156.696 38.5784 156.227 38.2857 155.876 37.925L155.67 38.1261ZM157.184 39.0691C157.821 39.3139 158.587 39.4338 159.48 39.4338V39.1458C158.612 39.1458 157.882 39.0289 157.287 38.8003L157.184 39.0691ZM159.48 39.4338C160.82 39.4338 161.937 39.1056 162.82 38.4388L162.646 38.209C161.824 38.83 160.772 39.1458 159.48 39.1458V39.4338ZM162.818 38.4398C163.73 37.7684 164.17 36.6503 164.17 35.1278H163.882C163.882 36.5978 163.459 37.6104 162.648 38.2079L162.818 38.4398ZM164.17 35.1278V31.1364H163.882V35.1278H164.17ZM164.026 30.9924H163.77V31.2804H164.026V30.9924ZM163.638 31.0786C163.381 31.6665 162.994 32.2251 162.474 32.7542L162.679 32.956C163.22 32.4055 163.629 31.8183 163.902 31.1941L163.638 31.0786ZM162.474 32.7542C161.96 33.2776 161.295 33.708 160.477 34.0429L160.586 34.3094C161.434 33.9625 162.133 33.5121 162.679 32.956L162.474 32.7542ZM160.477 34.0429C159.665 34.375 158.69 34.5435 157.548 34.5435V34.8315C158.717 34.8315 159.731 34.6591 160.586 34.3094L160.477 34.0429ZM157.548 34.5435C155.933 34.5435 154.466 34.1703 153.145 33.4257L153.003 33.6766C154.371 34.4471 155.887 34.8315 157.548 34.8315V34.5435ZM153.146 33.4263C151.838 32.6752 150.791 31.5282 150.006 29.9776L149.749 30.1076C150.556 31.7009 151.639 32.893 153.002 33.676L153.146 33.4263ZM150.007 29.9785C149.234 28.4229 148.843 26.4486 148.843 24.0483H148.555C148.555 26.4776 148.95 28.4994 149.749 30.1067L150.007 29.9785ZM148.843 24.0483C148.843 21.5914 149.243 19.5501 150.036 17.918L149.777 17.7922C148.96 19.4745 148.555 21.562 148.555 24.0483H148.843ZM150.036 17.918C150.831 16.2811 151.884 15.0632 153.192 14.2561L153.041 14.011C151.679 14.8515 150.591 16.1148 149.777 17.7922L150.036 17.918ZM153.192 14.2563C154.513 13.4465 155.96 13.0417 157.534 13.0417V12.7537C155.908 12.7537 154.409 13.1728 153.041 14.0107L153.192 14.2563ZM157.534 13.0417C158.74 13.0417 159.739 13.2475 160.537 13.6512L160.667 13.3942C159.818 12.9646 158.771 12.7537 157.534 12.7537V13.0417ZM160.538 13.6518C161.347 14.0513 161.992 14.5506 162.479 15.1478L162.703 14.9658C162.186 14.332 161.506 13.8085 160.666 13.3936L160.538 13.6518ZM162.481 15.1497C162.986 15.7481 163.371 16.3342 163.639 16.9076L163.9 16.7856C163.619 16.1848 163.219 15.5776 162.701 14.964L162.481 15.1497ZM163.77 16.9906H163.997V16.7026H163.77V16.9906ZM164.141 16.8466V13.1818H163.853V16.8466H164.141ZM163.997 13.3258H170.006V13.0378H163.997V13.3258ZM169.862 13.1818V35.2131H170.15V13.1818H169.862ZM169.862 35.2131C169.862 37.045 169.413 38.5667 168.526 39.7875L168.759 39.9569C169.689 38.6776 170.15 37.0933 170.15 35.2131H169.862ZM168.526 39.7875C167.635 41.0126 166.399 41.9342 164.812 42.5504L164.916 42.8189C166.548 42.1851 167.831 41.2318 168.759 39.9569L168.526 39.7875ZM164.811 42.5508C163.23 43.1773 161.407 43.4924 159.338 43.4924V43.7804C161.436 43.7804 163.296 43.4609 164.917 42.8185L164.811 42.5508ZM159.466 30.286C160.466 30.286 161.321 30.0381 162.022 29.5346L161.853 29.3007C161.21 29.7631 160.417 29.998 159.466 29.998V30.286ZM162.022 29.5344C162.729 29.0234 163.266 28.2987 163.634 27.3683L163.366 27.2623C163.015 28.1501 162.509 28.827 161.853 29.3009L162.022 29.5344ZM163.634 27.3691C164.011 26.4292 164.198 25.3116 164.198 24.0199H163.91C163.91 25.285 163.727 26.3643 163.366 27.2616L163.634 27.3691ZM164.198 24.0199C164.198 22.7284 164.016 21.6022 163.649 20.6444L163.38 20.7476C163.732 21.6648 163.91 22.7545 163.91 24.0199H164.198ZM163.649 20.6449C163.281 19.6774 162.746 18.9197 162.039 18.3799L161.864 18.6088C162.521 19.1106 163.028 19.8207 163.38 20.7472L163.649 20.6449ZM162.039 18.3799C161.329 17.8373 160.468 17.5691 159.466 17.5691V17.8571C160.414 17.8571 161.211 18.1097 161.864 18.6088L162.039 18.3799ZM159.466 17.5691C158.444 17.5691 157.573 17.8471 156.862 18.4098L157.041 18.6356C157.694 18.1188 158.499 17.8571 159.466 17.8571V17.5691ZM156.863 18.4091C156.157 18.9584 155.626 19.7209 155.268 20.6887L155.538 20.7886C155.881 19.8625 156.383 19.1476 157.04 18.6364L156.863 18.4091ZM155.268 20.6887C154.911 21.6548 154.734 22.7661 154.734 24.0199H155.022C155.022 22.7926 155.195 21.7164 155.538 20.7886L155.268 20.6887ZM154.734 24.0199C154.734 25.2922 154.911 26.3994 155.269 27.3383L155.538 27.2356C155.195 26.3373 155.022 25.2665 155.022 24.0199H154.734ZM155.27 27.3399C155.638 28.2697 156.168 28.9985 156.866 29.5188L157.038 29.288C156.39 28.8046 155.889 28.1224 155.537 27.2339L155.27 27.3399ZM156.867 29.5201C157.578 30.0334 158.447 30.286 159.466 30.286V29.998C158.496 29.998 157.689 29.7583 157.036 29.2867L156.867 29.5201ZM184.192 35H184.048V35.144H184.192V35ZM184.192 5.90909V5.76509H184.048V5.90909H184.192ZM201.195 6.8608L201.137 6.99242L201.137 6.99242L201.195 6.8608ZM204.42 9.50284L204.298 9.58035L204.299 9.58081L204.42 9.50284ZM204.817 16.3636L204.945 16.4314L204.945 16.4308L204.817 16.3636ZM202.942 18.4659L203.024 18.5846L203.024 18.5844L202.942 18.4659ZM200.244 19.6165L200.212 19.476L200.1 19.5012V19.6165H200.244ZM200.244 19.9006H200.1V20.0385L200.237 20.0444L200.244 19.9006ZM203.354 20.8381L203.28 20.9617L203.281 20.962L203.354 20.8381ZM205.727 23.267L205.602 23.3395L205.602 23.34L205.727 23.267ZM205.485 31.0938L205.363 31.0167L205.363 31.017L205.485 31.0938ZM202.119 33.9489L202.057 33.8186L202.057 33.8186L202.119 33.9489ZM190.343 29.9716H190.199V30.1156H190.343V29.9716ZM199.107 28.9915L199.199 29.1022L199.2 29.1016L199.107 28.9915ZM199.704 24.2188L199.582 24.2956L199.582 24.2956L199.704 24.2188ZM198.042 22.7699L197.978 22.899L197.979 22.8994L198.042 22.7699ZM190.343 22.2443V22.1003H190.199V22.2443H190.343ZM190.343 18.0824H190.199V18.2264H190.343V18.0824ZM197.147 17.642L197.206 17.7734L197.207 17.773L197.147 17.642ZM198.71 16.3636L198.592 16.2805L198.591 16.2819L198.71 16.3636ZM198.17 11.8466L198.075 11.9551L198.076 11.9557L198.17 11.8466ZM190.343 10.8807V10.7367H190.199V10.8807H190.343ZM184.336 35V5.90909H184.048V35H184.336ZM184.192 6.05309H195.84V5.76509H184.192V6.05309ZM195.84 6.05309C197.967 6.05309 199.731 6.36853 201.137 6.99242L201.254 6.72917C199.8 6.08412 197.994 5.76509 195.84 5.76509V6.05309ZM201.137 6.99242C202.545 7.61742 203.596 8.48111 204.298 9.58035L204.541 9.42533C203.804 8.27078 202.705 7.37311 201.254 6.72917L201.137 6.99242ZM204.299 9.58081C205.002 10.6727 205.355 11.933 205.355 13.3665H205.643C205.643 11.8833 205.277 10.5678 204.541 9.42487L204.299 9.58081ZM205.355 13.3665C205.355 14.4833 205.132 15.4586 204.69 16.2965L204.945 16.4308C205.412 15.5452 205.643 14.5224 205.643 13.3665H205.355ZM204.69 16.2959C204.247 17.1278 203.637 17.8112 202.861 18.3474L203.024 18.5844C203.839 18.0221 204.479 17.304 204.945 16.4314L204.69 16.2959ZM202.861 18.3472C202.091 18.8757 201.209 19.2523 200.212 19.476L200.275 19.757C201.305 19.5261 202.222 19.1357 203.024 18.5846L202.861 18.3472ZM200.1 19.6165V19.9006H200.388V19.6165H200.1ZM200.237 20.0444C201.321 20.0907 202.335 20.3961 203.28 20.9617L203.428 20.7145C202.442 20.1247 201.382 19.8051 200.25 19.7567L200.237 20.0444ZM203.281 20.962C204.234 21.5263 205.008 22.3177 205.602 23.3395L205.851 23.1946C205.233 22.1331 204.426 21.3051 203.428 20.7142L203.281 20.962ZM205.602 23.34C206.193 24.3461 206.492 25.5509 206.492 26.9602H206.78C206.78 25.5097 206.472 24.2524 205.851 23.1941L205.602 23.34ZM206.492 26.9602C206.492 28.4787 206.115 29.8294 205.363 31.0167L205.607 31.1708C206.39 29.9338 206.78 28.5289 206.78 26.9602H206.492ZM205.363 31.017C204.622 32.193 203.523 33.1277 202.057 33.8186L202.18 34.0791C203.688 33.3685 204.833 32.3998 205.607 31.1705L205.363 31.017ZM202.057 33.8186C200.595 34.5079 198.785 34.856 196.621 34.856V35.144C198.814 35.144 200.669 34.7914 202.18 34.0791L202.057 33.8186ZM196.621 34.856H184.192V35.144H196.621V34.856ZM190.343 30.1156H195.357V29.8276H190.343V30.1156ZM195.357 30.1156C197.084 30.1156 198.375 29.7875 199.199 29.1022L199.015 28.8807C198.268 29.5023 197.059 29.8276 195.357 29.8276V30.1156ZM199.2 29.1016C200.021 28.4093 200.43 27.4871 200.43 26.3494H200.142C200.142 27.4088 199.766 28.2479 199.014 28.8814L199.2 29.1016ZM200.43 26.3494C200.43 25.5203 200.23 24.7829 199.826 24.1419L199.582 24.2956C199.954 24.8857 200.142 25.5687 200.142 26.3494H200.43ZM199.826 24.1419C199.422 23.5015 198.846 23.0013 198.105 22.6404L197.979 22.8994C198.677 23.2392 199.209 23.705 199.582 24.2956L199.826 24.1419ZM198.106 22.6407C197.371 22.2785 196.501 22.1003 195.499 22.1003V22.3883C196.467 22.3883 197.292 22.5605 197.978 22.899L198.106 22.6407ZM195.499 22.1003H190.343V22.3883H195.499V22.1003ZM190.199 22.2443V29.9716H190.487V22.2443H190.199ZM190.343 18.2264H194.903V17.9384H190.343V18.2264ZM194.903 18.2264C195.762 18.2264 196.531 18.0766 197.206 17.7734L197.088 17.5107C196.456 17.7946 195.729 17.9384 194.903 17.9384V18.2264ZM197.207 17.773C197.891 17.4602 198.433 17.018 198.828 16.4454L198.591 16.2819C198.228 16.8078 197.729 17.2178 197.087 17.5111L197.207 17.773ZM198.827 16.4468C199.235 15.8699 199.436 15.1817 199.436 14.3892H199.148C199.148 15.1308 198.961 15.7589 198.592 16.2805L198.827 16.4468ZM199.436 14.3892C199.436 13.2992 199.046 12.4107 198.264 11.7375L198.076 11.9557C198.79 12.5704 199.148 13.3769 199.148 14.3892H199.436ZM198.264 11.738C197.491 11.0637 196.401 10.7367 195.016 10.7367V11.0247C196.359 11.0247 197.371 11.3416 198.075 11.9551L198.264 11.738ZM195.016 10.7367H190.343V11.0247H195.016V10.7367ZM190.199 10.8807V18.0824H190.487V10.8807H190.199ZM213.024 34.6875L212.965 34.8187L212.966 34.8191L213.024 34.6875ZM210.439 32.5142L210.318 32.5924L210.319 32.5938L210.439 32.5142ZM210.169 25.8523L210.042 25.7838L210.042 25.7838L210.169 25.8523ZM211.987 23.8636L211.908 23.7431L211.908 23.7431L211.987 23.8636ZM214.601 22.7273L214.565 22.5879L214.564 22.588L214.601 22.7273ZM217.697 22.1875L217.711 22.3308L217.712 22.3307L217.697 22.1875ZM220.766 21.8182L220.786 21.9607L220.788 21.9604L220.766 21.8182ZM222.456 21.2784L222.375 21.1591L222.375 21.1591L222.456 21.2784ZM222.129 18.054L222.034 18.162L222.035 18.1628L222.129 18.054ZM217.143 18.0398L217.229 18.1558L217.23 18.155L217.143 18.0398ZM215.865 19.8295L215.853 19.9731L215.971 19.9826L216.003 19.8696L215.865 19.8295ZM210.268 19.375L210.128 19.3448L210.093 19.5052L210.257 19.5185L210.268 19.375ZM211.945 15.9375L212.054 16.0316L212.054 16.031L211.945 15.9375ZM215.169 13.6932L215.222 13.8271L215.223 13.8269L215.169 13.6932ZM223.251 13.3239L223.216 13.4634L223.216 13.4634L223.251 13.3239ZM226.22 14.6449L226.138 14.7633L226.139 14.7637L226.22 14.6449ZM228.28 16.946L228.153 17.014L228.153 17.0145L228.28 16.946ZM229.033 35V35.144H229.177V35H229.033ZM223.294 35H223.15V35.144H223.294V35ZM223.294 31.9744H223.438V31.8304H223.294V31.9744ZM223.124 31.9744V31.8304H223.036L222.995 31.9086L223.124 31.9744ZM221.717 33.7784L221.812 33.887L221.813 33.8861L221.717 33.7784ZM219.601 34.9858L219.648 35.1219L219.649 35.1214L219.601 34.9858ZM220.837 30.7102L220.902 30.8383L220.904 30.8376L220.837 30.7102ZM222.442 29.2614L222.321 29.1837L222.321 29.1837L222.442 29.2614ZM223.024 24.8864H223.168V24.621L222.946 24.7656L223.024 24.8864ZM222.243 25.2273L222.284 25.3654L222.286 25.3647L222.243 25.2273ZM221.149 25.4972L221.175 25.6388L221.179 25.6381L221.149 25.4972ZM219.928 25.7102L219.947 25.8529L219.951 25.8524L219.928 25.7102ZM218.82 25.8665L218.799 25.7239L218.799 25.724L218.82 25.8665ZM216.959 26.3636L217.016 26.496L217.016 26.496L216.959 26.3636ZM215.723 27.2869L215.837 27.3752L215.838 27.3738L215.723 27.2869ZM216.178 30.5966L216.093 30.7129L216.095 30.7144L216.178 30.5966ZM216.746 35.2679C215.37 35.2679 214.15 35.0294 213.083 34.5559L212.966 34.8191C214.076 35.3115 215.337 35.5559 216.746 35.5559V35.2679ZM213.083 34.5563C212.018 34.0745 211.178 33.3675 210.559 32.4346L210.319 32.5938C210.969 33.5738 211.852 34.3156 212.965 34.8187L213.083 34.5563ZM210.56 32.436C209.953 31.4986 209.645 30.3248 209.645 28.9062H209.357C209.357 30.3664 209.675 31.598 210.318 32.5924L210.56 32.436ZM209.645 28.9062C209.645 27.7112 209.865 26.7183 210.296 25.9207L210.042 25.7838C209.583 26.634 209.357 27.6771 209.357 28.9062H209.645ZM210.296 25.9207C210.73 25.1174 211.319 24.4726 212.066 23.9841L211.908 23.7431C211.121 24.2584 210.499 24.9394 210.042 25.7838L210.296 25.9207ZM212.066 23.9841C212.819 23.4916 213.676 23.1187 214.637 22.8666L214.564 22.588C213.575 22.8472 212.69 23.2319 211.908 23.7431L212.066 23.9841ZM214.637 22.8667C215.614 22.613 216.639 22.4343 217.711 22.3308L217.684 22.0442C216.597 22.149 215.557 22.3302 214.565 22.5879L214.637 22.8667ZM217.712 22.3307C218.982 22.1981 220.007 22.0747 220.786 21.9607L220.745 21.6757C219.971 21.7889 218.951 21.9118 217.682 22.0443L217.712 22.3307ZM220.788 21.9604C221.571 21.8364 222.16 21.6525 222.537 21.3977L222.375 21.1591C222.052 21.3778 221.514 21.5538 220.743 21.676L220.788 21.9604ZM222.537 21.3977C222.931 21.1313 223.126 20.7336 223.126 20.2273H222.838C222.838 20.6489 222.682 20.9521 222.375 21.1591L222.537 21.3977ZM223.126 20.2273V20.142H222.838V20.2273H223.126ZM223.126 20.142C223.126 19.2097 222.83 18.4703 222.224 17.9452L222.035 18.1628C222.565 18.6225 222.838 19.2752 222.838 20.142H223.126ZM222.224 17.9459C221.631 17.4227 220.797 17.1713 219.743 17.1713V17.4593C220.754 17.4593 221.51 17.7004 222.034 18.162L222.224 17.9459ZM219.743 17.1713C218.634 17.1713 217.733 17.4173 217.057 17.9246L217.23 18.155C217.841 17.6963 218.674 17.4593 219.743 17.4593V17.1713ZM217.058 17.9238C216.39 18.4147 215.944 19.0372 215.727 19.7895L216.003 19.8696C216.202 19.1825 216.609 18.6118 217.229 18.1558L217.058 17.9238ZM215.877 19.686L210.28 19.2315L210.257 19.5185L215.853 19.9731L215.877 19.686ZM210.409 19.4052C210.689 18.1015 211.237 16.978 212.054 16.0316L211.836 15.8434C210.985 16.8288 210.416 17.997 210.128 19.3448L210.409 19.4052ZM212.054 16.031C212.871 15.0753 213.925 14.3402 215.222 13.8271L215.116 13.5593C213.78 14.0878 212.685 14.8489 211.835 15.844L212.054 16.031ZM215.223 13.8269C216.528 13.3047 218.043 13.0417 219.771 13.0417V12.7537C218.014 12.7537 216.462 13.0211 215.116 13.5595L215.223 13.8269ZM219.771 13.0417C220.972 13.0417 222.12 13.1824 223.216 13.4634L223.287 13.1844C222.167 12.8971 220.995 12.7537 219.771 12.7537V13.0417ZM223.216 13.4634C224.318 13.7437 225.292 14.1774 226.138 14.7633L226.302 14.5265C225.425 13.9192 224.419 13.4722 223.287 13.1843L223.216 13.4634ZM226.139 14.7637C226.991 15.3471 227.662 16.0967 228.153 17.014L228.407 16.8781C227.894 15.9203 227.192 15.1358 226.302 14.5261L226.139 14.7637ZM228.153 17.0145C228.641 17.9172 228.889 19.0052 228.889 20.2841H229.177C229.177 18.9682 228.922 17.8309 228.406 16.8775L228.153 17.0145ZM228.889 20.2841V35H229.177V20.2841H228.889ZM229.033 34.856H223.294V35.144H229.033V34.856ZM223.438 35V31.9744H223.15V35H223.438ZM223.294 31.8304H223.124V32.1184H223.294V31.8304ZM222.995 31.9086C222.653 32.5742 222.196 33.1614 221.622 33.6707L221.813 33.8861C222.413 33.3538 222.893 32.7383 223.252 32.0403L222.995 31.9086ZM221.623 33.6698C221.051 34.168 220.361 34.5619 219.553 34.8501L219.649 35.1214C220.488 34.8226 221.21 34.4116 221.812 33.887L221.623 33.6698ZM219.554 34.8497C218.748 35.1275 217.813 35.2679 216.746 35.2679V35.5559C217.838 35.5559 218.806 35.4123 219.648 35.1219L219.554 34.8497ZM218.479 31.3798C219.388 31.3798 220.197 31.2007 220.902 30.8383L220.771 30.5821C220.112 30.9205 219.35 31.0918 218.479 31.0918V31.3798ZM220.904 30.8376C221.606 30.467 222.16 29.9675 222.563 29.339L222.321 29.1837C221.947 29.7673 221.431 30.2338 220.769 30.5829L220.904 30.8376ZM222.563 29.339C222.967 28.7083 223.168 27.9944 223.168 27.2017H222.88C222.88 27.9431 222.693 28.6024 222.321 29.1837L222.563 29.339ZM223.168 27.2017V24.8864H222.88V27.2017H223.168ZM222.946 24.7656C222.771 24.8789 222.525 24.9878 222.2 25.0899L222.286 25.3647C222.624 25.2584 222.898 25.1401 223.103 25.0071L222.946 24.7656ZM222.202 25.0891C221.885 25.1825 221.524 25.2716 221.12 25.3562L221.179 25.6381C221.589 25.5523 221.957 25.4614 222.284 25.3654L222.202 25.0891ZM221.123 25.3556C220.717 25.4311 220.311 25.502 219.904 25.5681L219.951 25.8524C220.359 25.7859 220.767 25.7147 221.175 25.6387L221.123 25.3556ZM219.908 25.5676C219.5 25.6244 219.131 25.6765 218.799 25.7239L218.84 26.009C219.171 25.9617 219.54 25.9096 219.947 25.8528L219.908 25.5676ZM218.799 25.724C218.079 25.8296 217.446 25.9981 216.902 26.2313L217.016 26.496C217.532 26.2747 218.14 26.1117 218.84 26.009L218.799 25.724ZM216.902 26.2313C216.353 26.4666 215.919 26.7884 215.608 27.2001L215.838 27.3738C216.114 27.0089 216.504 26.7152 217.016 26.496L216.902 26.2313ZM215.609 27.1987C215.293 27.6072 215.139 28.1134 215.139 28.7074H215.427C215.427 28.165 215.566 27.7242 215.837 27.3751L215.609 27.1987ZM215.139 28.7074C215.139 29.5711 215.454 30.2468 216.093 30.7129L216.262 30.4803C215.708 30.0752 215.427 29.4914 215.427 28.7074H215.139ZM216.095 30.7144C216.731 31.1615 217.529 31.3798 218.479 31.3798V31.0918C217.573 31.0918 216.837 30.884 216.26 30.4788L216.095 30.7144ZM239.778 22.3864L239.634 22.3849V22.3864H239.778ZM239.778 35V35.144H239.922V35H239.778ZM233.727 35H233.583V35.144H233.727V35ZM233.727 13.1818V13.0378H233.583V13.1818H233.727ZM239.494 13.1818H239.638V13.0378H239.494V13.1818ZM239.494 17.0312H239.35V17.1753H239.494V17.0312ZM239.75 17.0312V17.1753H239.849L239.885 17.0825L239.75 17.0312ZM242.179 14.0199L242.257 14.1406L242.258 14.1402L242.179 14.0199ZM250.276 13.892L250.349 13.7679L250.276 13.892ZM252.903 16.733L252.775 16.7981L252.775 16.7985L252.903 16.733ZM253.841 35V35.144H253.985V35H253.841ZM247.79 35H247.646V35.144H247.79V35ZM247.79 22.1875L247.646 22.1865V22.1875H247.79ZM246.767 19.0625L246.661 19.1596L246.661 19.1602L246.767 19.0625ZM241.753 18.4517L241.682 18.3261L241.682 18.3266L241.753 18.4517ZM240.304 19.9858L240.176 19.9192L240.176 19.9199L240.304 19.9858ZM239.634 22.3864V35H239.922V22.3864H239.634ZM239.778 34.856H233.727V35.144H239.778V34.856ZM233.871 35V13.1818H233.583V35H233.871ZM233.727 13.3258H239.494V13.0378H233.727V13.3258ZM239.35 13.1818V17.0312H239.638V13.1818H239.35ZM239.494 17.1753H239.75V16.8872H239.494V17.1753ZM239.885 17.0825C240.357 15.842 241.147 14.8626 242.257 14.1406L242.1 13.8991C240.938 14.6545 240.109 15.6826 239.615 16.98L239.885 17.0825ZM242.258 14.1402C243.367 13.4103 244.716 13.0417 246.312 13.0417V12.7537C244.67 12.7537 243.264 13.1333 242.1 13.8996L242.258 14.1402ZM246.312 13.0417C247.806 13.0417 249.101 13.3683 250.203 14.0162L250.349 13.7679C249.196 13.0901 247.849 12.7537 246.312 12.7537V13.0417ZM250.203 14.0162C251.304 14.6643 252.162 15.5902 252.775 16.7981L253.032 16.6678C252.395 15.4136 251.501 14.4455 250.349 13.7679L250.203 14.0162ZM252.775 16.7985C253.388 17.9956 253.697 19.4304 253.697 21.108H253.985C253.985 19.3953 253.669 17.9135 253.032 16.6674L252.775 16.7985ZM253.697 21.108V35H253.985V21.108H253.697ZM253.841 34.856H247.79V35.144H253.841V34.856ZM247.934 35V22.1875H247.646V35H247.934ZM247.934 22.1885C247.943 20.8284 247.596 19.7473 246.873 18.9648L246.661 19.1602C247.321 19.874 247.655 20.8761 247.646 22.1865L247.934 22.1885ZM246.873 18.9654C246.15 18.1725 245.156 17.7821 243.912 17.7821V18.0701C245.092 18.0701 246.002 18.4374 246.661 19.1596L246.873 18.9654ZM243.912 17.7821C243.076 17.7821 242.332 17.9621 241.682 18.3261L241.823 18.5773C242.424 18.2406 243.119 18.0701 243.912 18.0701V17.7821ZM241.682 18.3266C241.04 18.6916 240.539 19.2242 240.176 19.9192L240.432 20.0523C240.77 19.4027 241.234 18.9126 241.824 18.5769L241.682 18.3266ZM240.176 19.9199C239.822 20.6072 239.644 21.4306 239.634 22.3849L239.922 22.3878C239.932 21.4671 240.104 20.6901 240.432 20.0517L240.176 19.9199ZM270.215 13.1818H270.359V13.0378H270.215V13.1818ZM270.215 17.7273V17.8713H270.359V17.7273H270.215ZM257.076 17.7273H256.932V17.8713H257.076V17.7273ZM257.076 13.1818V13.0378H256.932V13.1818H257.076ZM260.059 7.95455V7.81054H259.915V7.95455H260.059ZM266.11 7.95455H266.254V7.81054H266.11V7.95455ZM266.366 29.6023L266.239 29.6712L266.24 29.6729L266.366 29.6023ZM267.076 30.2415L267.022 30.3749L267.023 30.3755L267.076 30.2415ZM269.008 30.3551L269.031 30.4972L269.036 30.4963L269.008 30.3551ZM269.661 30.2273L269.802 30.1975L269.773 30.0598L269.635 30.0857L269.661 30.2273ZM270.613 34.7301L270.656 34.8676L270.781 34.8285L270.754 34.7003L270.613 34.7301ZM269.335 35.0568L269.303 34.9163L269.301 34.9168L269.335 35.0568ZM267.332 35.2983L267.326 35.1544L267.326 35.1544L267.332 35.2983ZM263.496 34.7159L263.442 34.8492L263.442 34.8494L263.496 34.7159ZM260.954 32.642L261.075 32.5639L261.075 32.5639L260.954 32.642ZM260.059 29.0909L260.203 29.0919V29.0909H260.059ZM270.071 13.1818V17.7273H270.359V13.1818H270.071ZM270.215 17.5833H257.076V17.8713H270.215V17.5833ZM257.22 17.7273V13.1818H256.932V17.7273H257.22ZM257.076 13.3258H270.215V13.0378H257.076V13.3258ZM260.059 8.09855H266.11V7.81054H260.059V8.09855ZM265.966 7.95455V28.2955H266.254V7.95455H265.966ZM265.966 28.2955C265.966 28.8658 266.053 29.3288 266.239 29.6712L266.492 29.5333C266.338 29.2507 266.254 28.8425 266.254 28.2955H265.966ZM266.24 29.6729C266.426 30.0024 266.687 30.2387 267.022 30.3749L267.13 30.1081C266.859 29.998 266.647 29.8082 266.491 29.5317L266.24 29.6729ZM267.023 30.3755C267.356 30.5064 267.734 30.5701 268.156 30.5701V30.2821C267.763 30.2821 267.421 30.2227 267.129 30.1075L267.023 30.3755ZM268.156 30.5701C268.448 30.5701 268.74 30.5458 269.031 30.4972L268.984 30.2131C268.708 30.2591 268.432 30.2821 268.156 30.2821V30.5701ZM269.036 30.4963C269.32 30.4395 269.537 30.3971 269.688 30.3688L269.635 30.0857C269.482 30.1143 269.264 30.1571 268.98 30.2139L269.036 30.4963ZM269.52 30.2571L270.472 34.7599L270.754 34.7003L269.802 30.1975L269.52 30.2571ZM270.57 34.5927C270.273 34.6856 269.851 34.7935 269.303 34.9163L269.366 35.1973C269.917 35.0739 270.347 34.964 270.656 34.8676L270.57 34.5927ZM269.301 34.9168C268.764 35.0465 268.106 35.1262 267.326 35.1544L267.337 35.4422C268.129 35.4136 268.807 35.3323 269.368 35.1968L269.301 34.9168ZM267.326 35.1544C265.884 35.2106 264.626 35.0183 263.551 34.5824L263.442 34.8494C264.564 35.3037 265.863 35.4996 267.337 35.4422L267.326 35.1544ZM263.551 34.5826C262.488 34.148 261.664 33.4753 261.075 32.5639L260.833 32.7202C261.456 33.6838 262.327 34.3936 263.442 34.8492L263.551 34.5826ZM261.075 32.5639C260.488 31.6557 260.194 30.5015 260.203 29.0919L259.915 29.09C259.905 30.5401 260.208 31.7534 260.833 32.7202L261.075 32.5639ZM260.203 29.0909V7.95455H259.915V29.0909H260.203ZM288.148 25.7102H288.004L288.004 25.7116L288.148 25.7102ZM288.148 13.1818V13.0378H288.004V13.1818H288.148ZM294.2 13.1818H294.344V13.0378H294.2V13.1818ZM294.2 35V35.144H294.344V35H294.2ZM288.39 35H288.246V35.144H288.39V35ZM288.39 31.0369H288.534V30.8929H288.39V31.0369ZM288.163 31.0369V30.8929H288.064L288.028 30.9852L288.163 31.0369ZM285.705 34.1193L285.624 34.0001L285.624 34.0004L285.705 34.1193ZM277.694 34.2898L277.768 34.1662L277.768 34.1662L277.694 34.2898ZM275.094 31.4631L274.966 31.5279L274.966 31.5287L275.094 31.4631ZM274.157 27.0739H274.013L274.013 27.0747L274.157 27.0739ZM274.157 13.1818V13.0378H274.013V13.1818H274.157ZM280.208 13.1818H280.352V13.0378H280.208V13.1818ZM280.208 25.9943H280.064L280.064 25.9954L280.208 25.9943ZM281.245 29.0483L281.351 28.9513L281.351 28.9513L281.245 29.0483ZM286.032 29.6733L286.099 29.8009L286.1 29.8001L286.032 29.6733ZM287.566 28.1676L287.443 28.0935L287.442 28.0948L287.566 28.1676ZM288.292 25.7102V13.1818H288.004V25.7102H288.292ZM288.148 13.3258H294.2V13.0378H288.148V13.3258ZM294.056 13.1818V35H294.344V13.1818H294.056ZM294.2 34.856H288.39V35.144H294.2V34.856ZM288.534 35V31.0369H288.246V35H288.534ZM288.39 30.8929H288.163V31.1809H288.39V30.8929ZM288.028 30.9852C287.547 32.2359 286.746 33.2399 285.624 34.0001L285.786 34.2385C286.956 33.4457 287.794 32.3948 288.297 31.0887L288.028 30.9852ZM285.624 34.0004C284.516 34.7577 283.158 35.1401 281.543 35.1401V35.4281C283.205 35.4281 284.622 35.034 285.787 34.2382L285.624 34.0004ZM281.543 35.1401C280.108 35.1401 278.851 34.814 277.768 34.1662L277.62 34.4133C278.753 35.0913 280.062 35.4281 281.543 35.4281V35.1401ZM277.768 34.1662C276.685 33.5181 275.836 32.5966 275.223 31.3975L274.966 31.5287C275.603 32.7727 276.487 33.7357 277.62 34.4133L277.768 34.1662ZM275.223 31.3983C274.62 30.2008 274.31 28.7607 274.301 27.0731L274.013 27.0747C274.023 28.7961 274.338 30.2821 274.966 31.5279L275.223 31.3983ZM274.301 27.0739V13.1818H274.013V27.0739H274.301ZM274.157 13.3258H280.208V13.0378H274.157V13.3258ZM280.064 13.1818V25.9943H280.352V13.1818H280.064ZM280.064 25.9954C280.074 27.3088 280.427 28.3644 281.139 29.1453L281.351 28.9513C280.7 28.236 280.361 27.2556 280.352 25.9933L280.064 25.9954ZM281.139 29.1453C281.851 29.9275 282.806 30.3145 283.987 30.3145V30.0265C282.875 30.0265 282.002 29.6654 281.351 28.9513L281.139 29.1453ZM283.987 30.3145C284.738 30.3145 285.443 30.1433 286.099 29.8009L285.965 29.5457C285.352 29.8661 284.693 30.0265 283.987 30.0265V30.3145ZM286.1 29.8001C286.759 29.4459 287.29 28.9245 287.69 28.2404L287.442 28.0948C287.066 28.7365 286.573 29.2189 285.964 29.5464L286.1 29.8001ZM287.69 28.2417C288.104 27.5508 288.302 26.7039 288.292 25.7088L288.004 25.7116C288.014 26.6673 287.823 27.4587 287.443 28.0935L287.69 28.2417Z" fill="#02A95C"/>
<path fill-rule="evenodd" clip-rule="evenodd" d="M2.49691 0H36.5031C37.8792 0 39 1.09094 39 2.43045V38.5696C39 39.9091 37.8792 41 36.5031 41H2.49691C1.12077 41 0 39.9091 0 38.5696V2.43045C0 1.09094 1.12077 0 2.49691 0ZM8.9378 21.9017C9.78901 21.9431 13.3925 22.1502 15.4354 23.0616C19.3369 24.7878 19.4787 28.0744 21.1812 28.8616C24.7421 29.7039 21.3088 22.9097 17.606 20.9074C14.9247 19.4712 10.0018 19.1812 9.51946 19.1674C9.2641 19.1536 9.06548 19.1536 8.9378 19.1536V7.27753C8.9378 6.83563 9.30666 6.47659 9.76064 6.47659H29.2252C29.6792 6.47659 30.048 6.83563 30.048 7.27753V15.5217C29.367 14.8727 28.6861 14.3065 28.0477 13.9336C24.4016 11.8208 16.6555 12.3318 19.1808 14.9003C20.7272 15.9498 23.7348 14.417 27.2248 16.8336C28.2037 17.5241 29.2394 18.6841 30.048 19.7198V33.7225C30.048 34.1644 29.6792 34.5234 29.2252 34.5234H9.76064C9.30666 34.5234 8.9378 34.1644 8.9378 33.7225V21.9017Z" fill="url(#paint0_linear_19_6)"/>
<defs>
<linearGradient id="paint0_linear_19_6" x1="-0.000154153" y1="20.4985" x2="38.9982" y2="20.4985" gradientUnits="userSpaceOnUse">
<stop stop-color="#02A95C"/>
<stop offset="0.65098" stop-color="#44B741"/>
<stop offset="1" stop-color="#87C526"/>
</linearGradient>
</defs>
</svg>
