<?xml version="1.0" encoding="UTF-8"?>
<!DOCTYPE svg PUBLIC "-//W3C//DTD SVG 1.1//EN" "http://www.w3.org/Graphics/SVG/1.1/DTD/svg11.dtd">
<!-- Creator: CorelDRAW X7 -->
<svg xmlns="http://www.w3.org/2000/svg" xml:space="preserve" width="14.8082mm" height="15.9928mm" version="1.1" style="shape-rendering:geometricPrecision; text-rendering:geometricPrecision; image-rendering:optimizeQuality; fill-rule:evenodd; clip-rule:evenodd"
viewBox="0 0 48 51"
 xmlns:xlink="http://www.w3.org/1999/xlink">
 <defs>
  <style type="text/css">
   <![CDATA[
    .fil0 {fill:url(#id0)}
   ]]>
  </style>
  <linearGradient id="id0" gradientUnits="userSpaceOnUse" x1="0.000321514" y1="25.7089" x2="47.6105" y2="25.7089">
   <stop offset="0" style="stop-opacity:1; stop-color:#02A95C"/>
   <stop offset="0.65098" style="stop-opacity:1; stop-color:#44B741"/>
   <stop offset="1" style="stop-opacity:1; stop-color:#87C526"/>
  </linearGradient>
 </defs>
 <g id="Layer_x0020_1">
  <metadata id="CorelCorpID_0Corel-Layer"/>
  <path class="fil0" d="M3 0l42 0c1,0 3,1 3,3l0 45c0,2 -2,3 -3,3l-42 0c-2,0 -3,-1 -3,-3l0 -45c0,-2 1,-3 3,-3zm8 27c1,1 5,1 8,2 5,2 5,6 7,7 4,1 0,-7 -5,-10 -3,-2 -9,-2 -9,-2 -1,0 -1,0 -1,0l0 -15c0,0 0,-1 1,-1l24 0c0,0 1,1 1,1l0 10c-1,0 -2,-1 -3,-2 -4,-2 -14,-2 -11,2 2,1 6,-1 10,2 1,1 3,2 4,4l0 17c0,1 -1,1 -1,1l-24 0c-1,0 -1,0 -1,-1l0 -15z"/>
 </g>
</svg>
