<svg width="235" height="35" viewBox="0 0 235 35" fill="none" xmlns="http://www.w3.org/2000/svg">
<path d="M61.7322 12.4567C61.647 11.5973 61.2813 10.9297 60.6349 10.4538C59.9886 9.97798 59.1115 9.74006 58.0036 9.74006C57.2507 9.74006 56.6151 9.84659 56.0966 10.0597C55.5781 10.2656 55.1804 10.5533 54.9034 10.9226C54.6335 11.2919 54.4986 11.7109 54.4986 12.1797C54.4844 12.5703 54.5661 12.9112 54.7436 13.2024C54.9283 13.4936 55.1804 13.7457 55.5 13.9588C55.8196 14.1648 56.1889 14.3459 56.608 14.5021C57.027 14.6513 57.4744 14.7791 57.9503 14.8857L59.9105 15.3544C60.8622 15.5675 61.7358 15.8516 62.5312 16.2067C63.3267 16.5618 64.0156 16.9986 64.598 17.517C65.1804 18.0355 65.6314 18.6463 65.951 19.3494C66.2777 20.0526 66.4446 20.8587 66.4517 21.7678C66.4446 23.103 66.1037 24.2607 65.429 25.2408C64.7614 26.2138 63.7955 26.9702 62.5312 27.5099C61.2741 28.0426 59.7578 28.3089 57.9822 28.3089C56.2209 28.3089 54.6868 28.0391 53.38 27.4993C52.0803 26.9595 51.0646 26.1605 50.3331 25.1023C49.6087 24.0369 49.2287 22.7195 49.1932 21.1499H53.657C53.7067 21.8814 53.9162 22.4922 54.2855 22.9822C54.6619 23.4652 55.1626 23.831 55.7876 24.0795C56.4197 24.321 57.1335 24.4418 57.929 24.4418C58.7102 24.4418 59.3885 24.3281 59.9638 24.1009C60.5462 23.8736 60.9972 23.5575 61.3168 23.1527C61.6364 22.7479 61.7962 22.2827 61.7962 21.7571C61.7962 21.267 61.6506 20.8551 61.3594 20.5213C61.0753 20.1875 60.6563 19.9034 60.1023 19.669C59.5554 19.4347 58.8842 19.2216 58.0888 19.0298L55.7131 18.4332C53.8736 17.9858 52.4212 17.2862 51.3558 16.3345C50.2905 15.3828 49.7614 14.1009 49.7685 12.4886C49.7614 11.1676 50.1129 10.0135 50.8232 9.02628C51.5405 8.03906 52.5241 7.26847 53.7741 6.71449C55.0241 6.16051 56.4446 5.88352 58.0355 5.88352C59.6548 5.88352 61.0682 6.16051 62.2756 6.71449C63.4901 7.26847 64.4347 8.03906 65.1094 9.02628C65.7841 10.0135 66.1321 11.157 66.1534 12.4567H61.7322ZM74.1355 28.3089C73.0914 28.3089 72.161 28.1278 71.3443 27.7656C70.5275 27.3963 69.8812 26.853 69.4054 26.1357C68.9366 25.4112 68.7022 24.5092 68.7022 23.4297C68.7022 22.5206 68.8691 21.7571 69.2029 21.1392C69.5368 20.5213 69.9913 20.0241 70.5666 19.6477C71.1419 19.2713 71.7953 18.9872 72.5268 18.7955C73.2654 18.6037 74.0396 18.4688 74.8493 18.3906C75.801 18.2912 76.568 18.1989 77.1504 18.1136C77.7328 18.0213 78.1554 17.8864 78.4181 17.7088C78.6809 17.5312 78.8123 17.2685 78.8123 16.9205V16.8565C78.8123 16.1818 78.5993 15.6598 78.1731 15.2905C77.7541 14.9212 77.1575 14.7365 76.3833 14.7365C75.5666 14.7365 74.9167 14.9176 74.4338 15.2798C73.9508 15.6349 73.6312 16.0824 73.475 16.6222L69.2775 16.2812C69.4906 15.2869 69.9096 14.4276 70.5346 13.7031C71.1596 12.9716 71.9657 12.4105 72.9529 12.0199C73.9473 11.6222 75.0978 11.4233 76.4047 11.4233C77.3137 11.4233 78.1838 11.5298 79.0147 11.7429C79.8528 11.956 80.595 12.2862 81.2413 12.7337C81.8947 13.1811 82.4096 13.7564 82.786 14.4595C83.1625 15.1555 83.3507 15.9901 83.3507 16.9631V28H79.0467V25.7308H78.9189C78.6561 26.2422 78.3045 26.6932 77.8642 27.0838C77.4238 27.4673 76.8947 27.7692 76.2768 27.9893C75.6589 28.2024 74.9451 28.3089 74.1355 28.3089ZM75.4352 25.1768C76.1028 25.1768 76.6923 25.0455 77.2037 24.7827C77.715 24.5128 78.1163 24.1506 78.4075 23.696C78.6987 23.2415 78.8443 22.7266 78.8443 22.1513V20.4148C78.7022 20.5071 78.5069 20.5923 78.2583 20.6705C78.0169 20.7415 77.7434 20.8089 77.438 20.8729C77.1326 20.9297 76.8272 20.983 76.5218 21.0327C76.2164 21.0753 75.9395 21.1143 75.6909 21.1499C75.1582 21.228 74.693 21.3523 74.2953 21.5227C73.8975 21.6932 73.5886 21.924 73.3684 22.2152C73.1483 22.4993 73.0382 22.8544 73.0382 23.2805C73.0382 23.8984 73.2619 24.3707 73.7093 24.6974C74.1639 25.017 74.7392 25.1768 75.4352 25.1768ZM91.41 6.18182V28H86.8716V6.18182H91.41ZM95.0455 28V11.6364H99.5838V28H95.0455ZM97.3253 9.52699C96.6506 9.52699 96.0717 9.30327 95.5888 8.85582C95.1129 8.40128 94.875 7.85795 94.875 7.22585C94.875 6.60085 95.1129 6.06463 95.5888 5.61719C96.0717 5.16264 96.6506 4.93537 97.3253 4.93537C98 4.93537 98.5753 5.16264 99.0511 5.61719C99.5341 6.06463 99.7756 6.60085 99.7756 7.22585C99.7756 7.85795 99.5341 8.40128 99.0511 8.85582C98.5753 9.30327 98 9.52699 97.3253 9.52699ZM107.758 18.5398V28H103.219V11.6364H107.545V14.5234H107.736C108.099 13.5717 108.706 12.8189 109.558 12.2649C110.41 11.7038 111.444 11.4233 112.658 11.4233C113.795 11.4233 114.785 11.6719 115.631 12.169C116.476 12.6662 117.133 13.3764 117.601 14.2997C118.07 15.2159 118.305 16.3097 118.305 17.581V28H113.766V18.3906C113.773 17.3892 113.518 16.608 112.999 16.0469C112.481 15.4787 111.767 15.1946 110.858 15.1946C110.247 15.1946 109.707 15.326 109.238 15.5888C108.777 15.8516 108.415 16.2351 108.152 16.7393C107.896 17.2365 107.765 17.8366 107.758 18.5398ZM129.254 34.4773C127.783 34.4773 126.523 34.2749 125.472 33.87C124.428 33.4723 123.597 32.929 122.979 32.2401C122.361 31.5511 121.96 30.777 121.775 29.9176L125.972 29.353C126.1 29.6797 126.303 29.9851 126.58 30.2692C126.857 30.5533 127.222 30.7805 127.677 30.951C128.138 31.1286 128.7 31.2173 129.36 31.2173C130.347 31.2173 131.161 30.9759 131.8 30.4929C132.446 30.017 132.769 29.218 132.769 28.0959V25.1023H132.577C132.379 25.5568 132.08 25.9865 131.683 26.3913C131.285 26.7962 130.773 27.1264 130.148 27.3821C129.523 27.6378 128.778 27.7656 127.911 27.7656C126.683 27.7656 125.564 27.4815 124.555 26.9134C123.554 26.3381 122.755 25.4609 122.158 24.282C121.569 23.0959 121.274 21.5973 121.274 19.7862C121.274 17.9325 121.576 16.3842 122.18 15.1413C122.783 13.8984 123.586 12.968 124.587 12.3501C125.596 11.7322 126.7 11.4233 127.901 11.4233C128.817 11.4233 129.584 11.5795 130.202 11.892C130.82 12.1974 131.317 12.581 131.693 13.0426C132.077 13.4972 132.371 13.9446 132.577 14.3849H132.748V11.6364H137.254V28.1598C137.254 29.5518 136.913 30.7166 136.232 31.6541C135.55 32.5916 134.605 33.2947 133.398 33.7635C132.197 34.2393 130.816 34.4773 129.254 34.4773ZM129.349 24.3565C130.081 24.3565 130.699 24.1754 131.203 23.8132C131.714 23.4439 132.105 22.9183 132.375 22.2365C132.652 21.5476 132.79 20.7237 132.79 19.7649C132.79 18.8061 132.656 17.9751 132.386 17.272C132.116 16.5618 131.725 16.0114 131.214 15.6207C130.702 15.2301 130.081 15.0348 129.349 15.0348C128.604 15.0348 127.975 15.2372 127.464 15.642C126.952 16.0398 126.565 16.5937 126.303 17.304C126.04 18.0142 125.908 18.8345 125.908 19.7649C125.908 20.7095 126.04 21.5263 126.303 22.2152C126.572 22.897 126.96 23.4261 127.464 23.8026C127.975 24.1719 128.604 24.3565 129.349 24.3565ZM147.894 28V6.18182H156.63C158.235 6.18182 159.574 6.41974 160.646 6.8956C161.719 7.37145 162.525 8.03196 163.065 8.87713C163.605 9.7152 163.874 10.6811 163.874 11.7749C163.874 12.6271 163.704 13.3764 163.363 14.0227C163.022 14.6619 162.553 15.1875 161.957 15.5994C161.367 16.0043 160.693 16.2919 159.933 16.4624V16.6754C160.764 16.7109 161.541 16.9453 162.266 17.3786C162.997 17.8118 163.59 18.419 164.045 19.2003C164.499 19.9744 164.727 20.8977 164.727 21.9702C164.727 23.1278 164.439 24.1612 163.864 25.0703C163.296 25.9723 162.454 26.6861 161.339 27.2116C160.224 27.7372 158.85 28 157.216 28H147.894ZM152.507 24.2287H156.268C157.553 24.2287 158.491 23.9837 159.08 23.4936C159.67 22.9964 159.965 22.3359 159.965 21.5121C159.965 20.9084 159.819 20.3757 159.528 19.9141C159.237 19.4524 158.821 19.0902 158.281 18.8274C157.749 18.5646 157.113 18.4332 156.374 18.4332H152.507V24.2287ZM152.507 15.3118H155.927C156.559 15.3118 157.12 15.2017 157.61 14.9815C158.107 14.7543 158.498 14.4347 158.782 14.0227C159.073 13.6108 159.219 13.1172 159.219 12.5419C159.219 11.7536 158.938 11.1179 158.377 10.6349C157.823 10.152 157.035 9.91051 156.012 9.91051H152.507V15.3118ZM172.309 28.3089C171.265 28.3089 170.335 28.1278 169.518 27.7656C168.701 27.3963 168.055 26.853 167.579 26.1357C167.11 25.4112 166.876 24.5092 166.876 23.4297C166.876 22.5206 167.043 21.7571 167.377 21.1392C167.711 20.5213 168.165 20.0241 168.74 19.6477C169.316 19.2713 169.969 18.9872 170.701 18.7955C171.439 18.6037 172.213 18.4688 173.023 18.3906C173.975 18.2912 174.742 18.1989 175.324 18.1136C175.907 18.0213 176.329 17.8864 176.592 17.7088C176.855 17.5312 176.986 17.2685 176.986 16.9205V16.8565C176.986 16.1818 176.773 15.6598 176.347 15.2905C175.928 14.9212 175.331 14.7365 174.557 14.7365C173.74 14.7365 173.091 14.9176 172.608 15.2798C172.125 15.6349 171.805 16.0824 171.649 16.6222L167.451 16.2812C167.664 15.2869 168.083 14.4276 168.708 13.7031C169.333 12.9716 170.14 12.4105 171.127 12.0199C172.121 11.6222 173.272 11.4233 174.578 11.4233C175.488 11.4233 176.358 11.5298 177.189 11.7429C178.027 11.956 178.769 12.2862 179.415 12.7337C180.069 13.1811 180.583 13.7564 180.96 14.4595C181.336 15.1555 181.525 15.9901 181.525 16.9631V28H177.221V25.7308H177.093C176.83 26.2422 176.478 26.6932 176.038 27.0838C175.598 27.4673 175.069 27.7692 174.451 27.9893C173.833 28.2024 173.119 28.3089 172.309 28.3089ZM173.609 25.1768C174.277 25.1768 174.866 25.0455 175.377 24.7827C175.889 24.5128 176.29 24.1506 176.581 23.696C176.873 23.2415 177.018 22.7266 177.018 22.1513V20.4148C176.876 20.5071 176.681 20.5923 176.432 20.6705C176.191 20.7415 175.917 20.8089 175.612 20.8729C175.306 20.9297 175.001 20.983 174.696 21.0327C174.39 21.0753 174.113 21.1143 173.865 21.1499C173.332 21.228 172.867 21.3523 172.469 21.5227C172.071 21.6932 171.762 21.924 171.542 22.2152C171.322 22.4993 171.212 22.8544 171.212 23.2805C171.212 23.8984 171.436 24.3707 171.883 24.6974C172.338 25.017 172.913 25.1768 173.609 25.1768ZM189.584 18.5398V28H185.045V11.6364H189.371V14.5234H189.562C189.925 13.5717 190.532 12.8189 191.384 12.2649C192.237 11.7038 193.27 11.4233 194.484 11.4233C195.621 11.4233 196.612 11.6719 197.457 12.169C198.302 12.6662 198.959 13.3764 199.428 14.2997C199.896 15.2159 200.131 16.3097 200.131 17.581V28H195.592V18.3906C195.599 17.3892 195.344 16.608 194.825 16.0469C194.307 15.4787 193.593 15.1946 192.684 15.1946C192.073 15.1946 191.533 15.326 191.065 15.5888C190.603 15.8516 190.241 16.2351 189.978 16.7393C189.722 17.2365 189.591 17.8366 189.584 18.5398ZM212.411 11.6364V15.0455H202.557V11.6364H212.411ZM204.794 7.71591H209.333V22.9716C209.333 23.3906 209.396 23.7173 209.524 23.9517C209.652 24.179 209.83 24.3388 210.057 24.4311C210.291 24.5234 210.561 24.5696 210.867 24.5696C211.08 24.5696 211.293 24.5518 211.506 24.5163C211.719 24.4737 211.882 24.4418 211.996 24.4205L212.71 27.7976C212.482 27.8686 212.163 27.9503 211.751 28.0426C211.339 28.142 210.838 28.2024 210.249 28.2237C209.155 28.2663 208.196 28.1207 207.372 27.7869C206.556 27.4531 205.92 26.9347 205.465 26.2315C205.011 25.5284 204.787 24.6406 204.794 23.5682V7.71591ZM225.861 21.0327V11.6364H230.4V28H226.042V25.0277H225.872C225.503 25.9865 224.888 26.7571 224.029 27.3395C223.177 27.9219 222.136 28.2131 220.907 28.2131C219.814 28.2131 218.851 27.9645 218.02 27.4673C217.189 26.9702 216.54 26.2635 216.071 25.3473C215.609 24.4311 215.375 23.3338 215.368 22.0554V11.6364H219.906V21.2457C219.913 22.2116 220.172 22.9751 220.684 23.5362C221.195 24.0973 221.881 24.3778 222.74 24.3778C223.287 24.3778 223.798 24.2536 224.274 24.005C224.75 23.7493 225.133 23.3729 225.425 22.8757C225.723 22.3786 225.868 21.7642 225.861 21.0327Z" fill="#02A95C"/>
<path d="M61.7322 12.4567L61.5889 12.4709L61.6018 12.6007H61.7322V12.4567ZM56.0966 10.0597L56.1498 10.1935L56.1513 10.1929L56.0966 10.0597ZM54.9034 10.9226L54.7882 10.8362L54.7871 10.8376L54.9034 10.9226ZM54.4986 12.1797L54.6426 12.1849V12.1797H54.4986ZM54.7436 13.2024L54.6206 13.2774L54.622 13.2795L54.7436 13.2024ZM55.5 13.9588L55.4201 14.0786L55.422 14.0799L55.5 13.9588ZM56.608 14.5021L56.5576 14.6371L56.5597 14.6378L56.608 14.5021ZM57.9503 14.8857L57.9838 14.7456L57.9817 14.7451L57.9503 14.8857ZM59.9105 15.3544L59.877 15.4945L59.8791 15.4949L59.9105 15.3544ZM62.5312 16.2067L62.4725 16.3382L62.4725 16.3382L62.5312 16.2067ZM64.598 17.517L64.6938 17.4095L64.6938 17.4095L64.598 17.517ZM65.951 19.3494L65.8199 19.409L65.8204 19.4101L65.951 19.3494ZM66.4517 21.7678L66.5957 21.7685L66.5957 21.7666L66.4517 21.7678ZM65.429 25.2408L65.3104 25.1591L65.3102 25.1593L65.429 25.2408ZM62.5312 27.5099L62.5874 27.6425L62.5878 27.6424L62.5312 27.5099ZM53.38 27.4993L53.3247 27.6323L53.325 27.6324L53.38 27.4993ZM50.3331 25.1023L50.214 25.1832L50.2146 25.1842L50.3331 25.1023ZM49.1932 21.1499V21.0059H49.0459L49.0492 21.1531L49.1932 21.1499ZM53.657 21.1499L53.8006 21.1401L53.7915 21.0059H53.657V21.1499ZM54.2855 22.9822L54.1705 23.0689L54.1719 23.0708L54.2855 22.9822ZM55.7876 24.0795L55.7344 24.2134L55.7363 24.2141L55.7876 24.0795ZM59.9638 24.1009L59.9114 23.9667L59.9109 23.9669L59.9638 24.1009ZM61.3168 23.1527L61.4298 23.2419L61.4298 23.2419L61.3168 23.1527ZM61.3594 20.5213L61.2497 20.6146L61.2509 20.616L61.3594 20.5213ZM60.1023 19.669L60.0455 19.8014L60.0462 19.8017L60.1023 19.669ZM58.0888 19.0298L58.0537 19.1695L58.055 19.1698L58.0888 19.0298ZM55.7131 18.4332L55.7481 18.2936L55.7471 18.2933L55.7131 18.4332ZM51.3558 16.3345L51.2599 16.4419L51.2599 16.4419L51.3558 16.3345ZM49.7685 12.4886L49.9125 12.4893L49.9125 12.4879L49.7685 12.4886ZM50.8232 9.02628L50.7067 8.94163L50.7063 8.94218L50.8232 9.02628ZM62.2756 6.71449L62.2155 6.84537L62.2158 6.8455L62.2756 6.71449ZM65.1094 9.02628L64.9905 9.10753L64.9905 9.10753L65.1094 9.02628ZM66.1534 12.4567V12.6007H66.2998L66.2974 12.4543L66.1534 12.4567ZM61.8755 12.4425C61.7866 11.546 61.4022 10.8399 60.7203 10.3379L60.5496 10.5698C61.1603 11.0195 61.5074 11.6486 61.5889 12.4709L61.8755 12.4425ZM60.7203 10.3379C60.0414 9.83803 59.1308 9.59605 58.0036 9.59605V9.88406C59.0922 9.88406 59.9358 10.1179 60.5496 10.5698L60.7203 10.3379ZM58.0036 9.59605C57.238 9.59605 56.5825 9.70427 56.0419 9.92646L56.1513 10.1929C56.6476 9.98891 57.2634 9.88406 58.0036 9.88406V9.59605ZM56.0434 9.92583C55.5055 10.1395 55.0841 10.4416 54.7882 10.8362L55.0186 11.009C55.2767 10.6649 55.6508 10.3917 56.1498 10.1935L56.0434 9.92583ZM54.7871 10.8376C54.4988 11.2322 54.3546 11.6812 54.3546 12.1797H54.6426C54.6426 11.7407 54.7683 11.3516 55.0197 11.0075L54.7871 10.8376ZM54.3547 12.1745C54.3396 12.5891 54.4263 12.9587 54.6207 13.2774L54.8666 13.1274C54.7058 12.8637 54.6292 12.5516 54.6425 12.1849L54.3547 12.1745ZM54.622 13.2795C54.8186 13.5896 55.0857 13.8557 55.4201 14.0786L55.5799 13.839C55.2751 13.6358 55.0379 13.3977 54.8652 13.1253L54.622 13.2795ZM55.422 14.0799C55.7517 14.2923 56.1306 14.4778 56.5576 14.6371L56.6583 14.3672C56.2473 14.214 55.8875 14.0372 55.578 13.8378L55.422 14.0799ZM56.5597 14.6378C56.9847 14.7891 57.4378 14.9185 57.9188 15.0262L57.9817 14.7451C57.5111 14.6398 57.0693 14.5135 56.6562 14.3665L56.5597 14.6378ZM57.9168 15.0257L59.877 15.4945L59.944 15.2143L57.9838 14.7456L57.9168 15.0257ZM59.8791 15.4949C60.8225 15.7061 61.6868 15.9874 62.4725 16.3382L62.59 16.0752C61.7848 15.7157 60.9019 15.4288 59.942 15.2139L59.8791 15.4949ZM62.4725 16.3382C63.2561 16.688 63.9321 17.117 64.5023 17.6246L64.6938 17.4095C64.0991 16.8801 63.3973 16.4356 62.59 16.0752L62.4725 16.3382ZM64.5023 17.6246C65.0698 18.1298 65.5087 18.7244 65.8199 19.409L66.0821 19.2898C65.7541 18.5683 65.291 17.9412 64.6938 17.4095L64.5023 17.6246ZM65.8204 19.4101C66.1371 20.0916 66.3007 20.8769 66.3077 21.7689L66.5957 21.7666C66.5885 20.8405 66.4183 20.0135 66.0816 19.2888L65.8204 19.4101ZM66.3077 21.767C66.3007 23.077 65.9667 24.2057 65.3104 25.1591L65.5476 25.3224C66.2407 24.3157 66.5885 23.129 66.5957 21.7685L66.3077 21.767ZM65.3102 25.1593C64.6605 26.1062 63.718 26.8467 62.4747 27.3775L62.5878 27.6424C63.8729 27.0937 64.8622 26.3213 65.5477 25.3222L65.3102 25.1593ZM62.4751 27.3774C61.2402 27.9006 59.744 28.1649 57.9822 28.1649V28.453C59.7716 28.453 61.3081 28.1846 62.5874 27.6425L62.4751 27.3774ZM57.9822 28.1649C56.2353 28.1649 54.7206 27.8972 53.4349 27.3662L53.325 27.6324C54.653 28.1809 56.2065 28.453 57.9822 28.453V28.1649ZM53.4352 27.3663C52.1585 26.8361 51.1659 26.0537 50.4516 25.0204L50.2146 25.1842C50.9634 26.2673 52.002 27.0829 53.3247 27.6323L53.4352 27.3663ZM50.4522 25.0213C49.7465 23.9835 49.3722 22.6946 49.3371 21.1466L49.0492 21.1531C49.0852 22.7444 49.4709 24.0904 50.214 25.1832L50.4522 25.0213ZM49.1932 21.2939H53.657V21.0059H49.1932V21.2939ZM53.5133 21.1596C53.5645 21.9135 53.7813 22.5525 54.1705 23.0689L54.4005 22.8956C54.051 22.4319 53.8488 21.8493 53.8006 21.1401L53.5133 21.1596ZM54.1719 23.0708C54.5656 23.5759 55.088 23.9563 55.7344 24.2134L55.8409 23.9457C55.2372 23.7057 54.7583 23.3545 54.3991 22.8937L54.1719 23.0708ZM55.7363 24.2141C56.3874 24.4628 57.119 24.5858 57.929 24.5858V24.2978C57.1481 24.2978 56.4521 24.1792 55.839 23.945L55.7363 24.2141ZM57.929 24.5858C58.7238 24.5858 59.4208 24.4702 60.0167 24.2348L59.9109 23.9669C59.3562 24.186 58.6967 24.2978 57.929 24.2978V24.5858ZM60.0161 24.235C60.6173 24.0004 61.0913 23.6707 61.4298 23.2419L61.2037 23.0635C60.9031 23.4443 60.475 23.7468 59.9114 23.9667L60.0161 24.235ZM61.4298 23.2419C61.7699 22.8112 61.9402 22.3144 61.9402 21.7571H61.6522C61.6522 22.251 61.5029 22.6846 61.2037 23.0635L61.4298 23.2419ZM61.9402 21.7571C61.9402 21.2362 61.7845 20.7895 61.4679 20.4266L61.2509 20.616C61.5167 20.9207 61.6522 21.2979 61.6522 21.7571H61.9402ZM61.469 20.428C61.166 20.0719 60.7257 19.7764 60.1584 19.5364L60.0462 19.8017C60.5868 20.0304 60.9845 20.3031 61.2497 20.6146L61.469 20.428ZM60.159 19.5367C59.6025 19.2982 58.9231 19.0828 58.1225 18.8898L58.055 19.1698C58.8453 19.3603 59.5083 19.5711 60.0455 19.8014L60.159 19.5367ZM58.1239 18.8902L55.7481 18.2936L55.678 18.5729L58.0537 19.1695L58.1239 18.8902ZM55.7471 18.2933C53.9234 17.8497 52.4947 17.1588 51.4518 16.2271L51.2599 16.4419C52.3477 17.4137 53.8238 18.1219 55.679 18.5732L55.7471 18.2933ZM51.4518 16.2271C50.4213 15.3066 49.9055 14.0662 49.9125 12.4893L49.6245 12.488C49.6172 14.1355 50.1597 15.459 51.2599 16.4419L51.4518 16.2271ZM49.9125 12.4879C49.9055 11.1945 50.2492 10.0707 50.94 9.11038L50.7063 8.94218C49.9767 9.95627 49.6172 11.1407 49.6245 12.4894L49.9125 12.4879ZM50.9397 9.11093C51.6403 8.14661 52.6028 7.39111 53.8325 6.84614L53.7158 6.58284C52.4455 7.14582 51.4406 7.93151 50.7067 8.94163L50.9397 9.11093ZM53.8325 6.84614C55.0614 6.30153 56.4614 6.02752 58.0355 6.02752V5.73952C56.4278 5.73952 54.9869 6.01949 53.7158 6.58284L53.8325 6.84614ZM58.0355 6.02752C59.6385 6.02752 61.0306 6.30172 62.2155 6.84537L62.3356 6.5836C61.1057 6.0193 59.6711 5.73952 58.0355 5.73952V6.02752ZM62.2158 6.8455C63.4093 7.38989 64.3323 8.14443 64.9905 9.10753L65.2283 8.94502C64.5371 7.93369 63.5708 7.14704 62.3353 6.58347L62.2158 6.8455ZM64.9905 9.10753C65.6479 10.0694 65.9885 11.1849 66.0094 12.459L66.2974 12.4543C66.2757 11.129 65.9203 9.95754 65.2283 8.94502L64.9905 9.10753ZM66.1534 12.3127H61.7322V12.6007H66.1534V12.3127ZM71.3443 27.7656L71.285 27.8968L71.2859 27.8973L71.3443 27.7656ZM69.4054 26.1357L69.2845 26.2139L69.2854 26.2153L69.4054 26.1357ZM69.2029 21.1392L69.0763 21.0708L69.0763 21.0708L69.2029 21.1392ZM70.5666 19.6477L70.4877 19.5272L70.4877 19.5272L70.5666 19.6477ZM72.5268 18.7955L72.4906 18.6561L72.4903 18.6562L72.5268 18.7955ZM74.8493 18.3906L74.8631 18.534L74.8642 18.5338L74.8493 18.3906ZM77.1504 18.1136L77.1712 18.2561L77.1729 18.2559L77.1504 18.1136ZM78.4181 17.7088L78.3375 17.5895L78.3375 17.5895L78.4181 17.7088ZM78.1731 15.2905L78.0779 15.3985L78.0788 15.3993L78.1731 15.2905ZM74.4338 15.2798L74.5191 15.3959L74.5202 15.395L74.4338 15.2798ZM73.475 16.6222L73.4633 16.7657L73.5806 16.7752L73.6133 16.6622L73.475 16.6222ZM69.2775 16.2812L69.1367 16.2511L69.1023 16.4115L69.2659 16.4248L69.2775 16.2812ZM70.5346 13.7031L70.6437 13.7972L70.6441 13.7967L70.5346 13.7031ZM72.9529 12.0199L73.0059 12.1538L73.0064 12.1536L72.9529 12.0199ZM79.0147 11.7429L78.979 11.8824L78.9793 11.8825L79.0147 11.7429ZM81.2413 12.7337L81.1593 12.8521L81.1599 12.8525L81.2413 12.7337ZM82.786 14.4595L82.6591 14.5275L82.6594 14.528L82.786 14.4595ZM83.3507 28V28.144H83.4947V28H83.3507ZM79.0467 28H78.9027V28.144H79.0467V28ZM79.0467 25.7308H79.1907V25.5868H79.0467V25.7308ZM78.9189 25.7308V25.5868H78.831L78.7908 25.665L78.9189 25.7308ZM77.8642 27.0838L77.9588 27.1924L77.9597 27.1915L77.8642 27.0838ZM76.2768 27.9893L76.3238 28.1255L76.3251 28.125L76.2768 27.9893ZM77.2037 24.7827L77.2695 24.9108L77.2709 24.91L77.2037 24.7827ZM78.4075 23.696L78.2862 23.6183L78.2862 23.6183L78.4075 23.696ZM78.8443 20.4148H78.9883V20.1494L78.7658 20.294L78.8443 20.4148ZM78.2583 20.6705L78.299 20.8086L78.3015 20.8078L78.2583 20.6705ZM77.438 20.8729L77.4644 21.0145L77.4675 21.0138L77.438 20.8729ZM76.5218 21.0327L76.5417 21.1753L76.545 21.1748L76.5218 21.0327ZM75.6909 21.1499L75.6705 21.0073L75.67 21.0074L75.6909 21.1499ZM74.2953 21.5227L74.352 21.6551L74.352 21.6551L74.2953 21.5227ZM73.3684 22.2152L73.4823 22.3034L73.4833 22.302L73.3684 22.2152ZM73.7093 24.6974L73.6244 24.8138L73.6265 24.8152L73.7093 24.6974ZM74.1355 28.1649C73.1082 28.1649 72.1982 27.9868 71.4027 27.634L71.2859 27.8973C72.1239 28.2689 73.0747 28.453 74.1355 28.453V28.1649ZM71.4036 27.6344C70.6105 27.2758 69.9856 26.7499 69.5254 26.056L69.2854 26.2153C69.7768 26.9561 70.4446 27.5168 71.285 27.8968L71.4036 27.6344ZM69.5263 26.0574C69.076 25.3615 68.8462 24.4884 68.8462 23.4297H68.5582C68.5582 24.53 68.7973 25.4609 69.2845 26.2139L69.5263 26.0574ZM68.8462 23.4297C68.8462 22.5377 69.0101 21.7992 69.3296 21.2076L69.0763 21.0708C68.7282 21.715 68.5582 22.5035 68.5582 23.4297H68.8462ZM69.3296 21.2076C69.6523 20.6103 70.0906 20.1313 70.6454 19.7682L70.4877 19.5272C69.892 19.917 69.4212 20.4323 69.0763 21.0708L69.3296 21.2076ZM70.6454 19.7682C71.2065 19.4011 71.8453 19.123 72.5633 18.9348L72.4903 18.6562C71.7452 18.8515 71.0773 19.1415 70.4877 19.5272L70.6454 19.7682ZM72.563 18.9348C73.2938 18.7451 74.0605 18.6114 74.8631 18.534L74.8354 18.2473C74.0187 18.3261 73.2371 18.4623 72.4906 18.6561L72.563 18.9348ZM74.8642 18.5338C75.8168 18.4343 76.5861 18.3418 77.1712 18.2561L77.1295 17.9712C76.5499 18.056 75.7851 18.1481 74.8343 18.2474L74.8642 18.5338ZM77.1729 18.2559C77.7613 18.1626 78.2093 18.0237 78.4988 17.8281L78.3375 17.5895C78.1014 17.749 77.7043 17.88 77.1278 17.9714L77.1729 18.2559ZM78.4988 17.8281C78.8055 17.6209 78.9563 17.3108 78.9563 16.9205H78.6683C78.6683 17.2261 78.5563 17.4416 78.3375 17.5895L78.4988 17.8281ZM78.9563 16.9205V16.8565H78.6683V16.9205H78.9563ZM78.9563 16.8565C78.9563 16.1491 78.7313 15.5837 78.2674 15.1817L78.0788 15.3993C78.4672 15.7359 78.6683 16.2146 78.6683 16.8565H78.9563ZM78.2683 15.1825C77.8144 14.7823 77.179 14.5925 76.3833 14.5925V14.8805C77.136 14.8805 77.6938 15.06 78.0779 15.3985L78.2683 15.1825ZM76.3833 14.5925C75.5463 14.5925 74.8627 14.7781 74.3474 15.1646L74.5202 15.395C74.9707 15.0571 75.5869 14.8805 76.3833 14.8805V14.5925ZM74.3485 15.1638C73.8418 15.5364 73.5023 16.0098 73.3366 16.5821L73.6133 16.6622C73.7601 16.155 74.0599 15.7335 74.5191 15.3958L74.3485 15.1638ZM73.4866 16.4786L69.2892 16.1377L69.2659 16.4248L73.4633 16.7657L73.4866 16.4786ZM69.4183 16.3114C69.6267 15.3392 70.0354 14.5022 70.6437 13.7972L70.4256 13.6091C69.7838 14.3529 69.3545 15.2347 69.1367 16.2511L69.4183 16.3114ZM70.6441 13.7967C71.2523 13.0848 72.0383 12.5367 73.0059 12.1538L72.9 11.886C71.8932 12.2843 71.0669 12.8584 70.4251 13.6096L70.6441 13.7967ZM73.0064 12.1536C73.9804 11.764 75.1122 11.5673 76.4047 11.5673V11.2793C75.0834 11.2793 73.9141 11.4803 72.8995 11.8862L73.0064 12.1536ZM76.4047 11.5673C77.3024 11.5673 78.1604 11.6725 78.979 11.8824L79.0505 11.6034C78.2072 11.3872 77.3251 11.2793 76.4047 11.2793V11.5673ZM78.9793 11.8825C79.8024 12.0917 80.5285 12.4153 81.1593 12.8521L81.3233 12.6153C80.6615 12.1571 79.9033 11.8202 79.0502 11.6033L78.9793 11.8825ZM81.1599 12.8525C81.7942 13.2868 82.2935 13.8446 82.6591 14.5275L82.913 14.3916C82.5258 13.6682 81.9953 13.0754 81.3227 12.6148L81.1599 12.8525ZM82.6594 14.528C83.0221 15.1987 83.2067 16.0085 83.2067 16.9631H83.4947C83.4947 15.9716 83.3028 15.1124 82.9127 14.391L82.6594 14.528ZM83.2067 16.9631V28H83.4947V16.9631H83.2067ZM83.3507 27.856H79.0467V28.144H83.3507V27.856ZM79.1907 28V25.7308H78.9027V28H79.1907ZM79.0467 25.5868H78.9189V25.8748H79.0467V25.5868ZM78.7908 25.665C78.5363 26.1601 78.1959 26.597 77.7686 26.9761L77.9597 27.1915C78.4131 26.7894 78.7758 26.3242 79.0469 25.7966L78.7908 25.665ZM77.7696 26.9752C77.3444 27.3455 76.8315 27.6388 76.2285 27.8537L76.3251 28.125C76.9579 27.8995 77.5032 27.5891 77.9587 27.1924L77.7696 26.9752ZM76.2299 27.8532C75.6302 28.06 74.9328 28.1649 74.1355 28.1649V28.453C74.9574 28.453 75.6876 28.3448 76.3238 28.1255L76.2299 27.8532ZM75.4352 25.3208C76.122 25.3208 76.7347 25.1856 77.2695 24.9108L77.1378 24.6546C76.6499 24.9053 76.0836 25.0328 75.4352 25.0328V25.3208ZM77.2709 24.91C77.8026 24.6294 78.2232 24.2507 78.5287 23.7737L78.2862 23.6183C78.0094 24.0505 77.6274 24.3962 77.1364 24.6553L77.2709 24.91ZM78.5287 23.7737C78.8358 23.2944 78.9883 22.7522 78.9883 22.1513H78.7003C78.7003 22.7009 78.5616 23.1885 78.2862 23.6183L78.5287 23.7737ZM78.9883 22.1513V20.4148H78.7003V22.1513H78.9883ZM78.7658 20.294C78.6389 20.3765 78.4572 20.457 78.2152 20.5331L78.3015 20.8078C78.5566 20.7277 78.7655 20.6377 78.9228 20.5355L78.7658 20.294ZM78.2177 20.5323C77.9807 20.602 77.711 20.6686 77.4085 20.7319L77.4675 21.0138C77.7758 20.9493 78.0531 20.8809 78.299 20.8086L78.2177 20.5323ZM77.4117 20.7313C77.1074 20.7879 76.803 20.841 76.4987 20.8905L76.545 21.1748C76.8514 21.1249 77.1579 21.0715 77.4644 21.0144L77.4117 20.7313ZM76.5019 20.89C76.1964 20.9327 75.9193 20.9718 75.6705 21.0073L75.7112 21.2924C75.9596 21.2569 76.2365 21.2179 76.5417 21.1753L76.5019 20.89ZM75.67 21.0074C75.1278 21.0869 74.6501 21.214 74.2386 21.3904L74.352 21.6551C74.7359 21.4906 75.1886 21.3691 75.7118 21.2923L75.67 21.0074ZM74.2386 21.3904C73.8221 21.5688 73.4914 21.8138 73.2536 22.1283L73.4833 22.302C73.6858 22.0342 73.973 21.8175 74.352 21.6551L74.2386 21.3904ZM73.2546 22.127C73.0114 22.4408 72.8942 22.8286 72.8942 23.2805H73.1822C73.1822 22.8802 73.2851 22.5578 73.4823 22.3034L73.2546 22.127ZM72.8942 23.2805C72.8942 23.9383 73.1352 24.4565 73.6244 24.8137L73.7943 24.5811C73.3886 24.285 73.1822 23.8586 73.1822 23.2805H72.8942ZM73.6265 24.8152C74.1108 25.1558 74.7171 25.3208 75.4352 25.3208V25.0328C74.7613 25.0328 74.2169 24.8783 73.7922 24.5796L73.6265 24.8152ZM91.41 6.18182H91.554V6.03781H91.41V6.18182ZM91.41 28V28.144H91.554V28H91.41ZM86.8716 28H86.7276V28.144H86.8716V28ZM86.8716 6.18182V6.03781H86.7276V6.18182H86.8716ZM91.266 6.18182V28H91.554V6.18182H91.266ZM91.41 27.856H86.8716V28.144H91.41V27.856ZM87.0156 28V6.18182H86.7276V28H87.0156ZM86.8716 6.32582H91.41V6.03781H86.8716V6.32582ZM95.0455 28H94.9015V28.144H95.0455V28ZM95.0455 11.6364V11.4924H94.9015V11.6364H95.0455ZM99.5838 11.6364H99.7278V11.4924H99.5838V11.6364ZM99.5838 28V28.144H99.7278V28H99.5838ZM95.5888 8.85582L95.4893 8.95996L95.4909 8.96146L95.5888 8.85582ZM95.5888 5.61719L95.6874 5.7221L95.6875 5.72205L95.5888 5.61719ZM99.0511 5.61719L98.9517 5.72133L98.9533 5.72282L99.0511 5.61719ZM99.0511 8.85582L99.1498 8.96073L99.1498 8.96069L99.0511 8.85582ZM95.1895 28V11.6364H94.9015V28H95.1895ZM95.0455 11.7804H99.5838V11.4924H95.0455V11.7804ZM99.4398 11.6364V28H99.7278V11.6364H99.4398ZM99.5838 27.856H95.0455V28.144H99.5838V27.856ZM97.3253 9.38299C96.6859 9.38299 96.1423 9.1723 95.6866 8.75019L95.4909 8.96146C96.0012 9.43424 96.6153 9.67099 97.3253 9.67099V9.38299ZM95.6882 8.75169C95.2395 8.32306 95.019 7.81684 95.019 7.22585H94.731C94.731 7.89907 94.9863 8.47949 95.4893 8.95995L95.6882 8.75169ZM95.019 7.22585C95.019 6.64255 95.239 6.1437 95.6874 5.7221L95.4901 5.51228C94.9868 5.98556 94.731 6.55915 94.731 7.22585H95.019ZM95.6875 5.72205C96.1432 5.29313 96.6865 5.07937 97.3253 5.07937V4.79137C96.6146 4.79137 96.0003 5.03216 95.4901 5.51232L95.6875 5.72205ZM97.3253 5.07937C97.964 5.07937 98.5034 5.29307 98.9517 5.72132L99.1506 5.51306C98.6472 5.03221 98.036 4.79137 97.3253 4.79137V5.07937ZM98.9533 5.72282C99.4086 6.14465 99.6316 6.6433 99.6316 7.22585H99.9196C99.9196 6.5584 99.6596 5.98461 99.149 5.51155L98.9533 5.72282ZM99.6316 7.22585C99.6316 7.8161 99.4081 8.32212 98.9524 8.75096L99.1498 8.96069C99.6601 8.48043 99.9196 7.8998 99.9196 7.22585H99.6316ZM98.9525 8.75091C98.5043 9.17234 97.9647 9.38299 97.3253 9.38299V9.67099C98.0353 9.67099 98.6463 9.43419 99.1498 8.96073L98.9525 8.75091ZM107.758 18.5398L107.614 18.5383V18.5398H107.758ZM107.758 28V28.144H107.902V28H107.758ZM103.219 28H103.075V28.144H103.219V28ZM103.219 11.6364V11.4924H103.075V11.6364H103.219ZM107.545 11.6364H107.689V11.4924H107.545V11.6364ZM107.545 14.5234H107.401V14.6674H107.545V14.5234ZM107.736 14.5234V14.6674H107.836L107.871 14.5747L107.736 14.5234ZM109.558 12.2649L109.637 12.3857L109.637 12.3852L109.558 12.2649ZM115.631 12.169L115.704 12.0449L115.631 12.169ZM117.601 14.2997L117.473 14.3649L117.473 14.3653L117.601 14.2997ZM118.305 28V28.144H118.449V28H118.305ZM113.766 28H113.622V28.144H113.766V28ZM113.766 18.3906L113.622 18.3896V18.3906H113.766ZM112.999 16.0469L112.893 16.1439L112.893 16.1446L112.999 16.0469ZM109.238 15.5888L109.168 15.4632L109.167 15.4636L109.238 15.5888ZM108.152 16.7393L108.024 16.6728L108.024 16.6735L108.152 16.7393ZM107.614 18.5398V28H107.902V18.5398H107.614ZM107.758 27.856H103.219V28.144H107.758V27.856ZM103.363 28V11.6364H103.075V28H103.363ZM103.219 11.7804H107.545V11.4924H103.219V11.7804ZM107.401 11.6364V14.5234H107.689V11.6364H107.401ZM107.545 14.6674H107.736V14.3794H107.545V14.6674ZM107.871 14.5747C108.222 13.6514 108.81 12.923 109.637 12.3857L109.48 12.1442C108.602 12.7148 107.975 13.492 107.602 14.4722L107.871 14.5747ZM109.637 12.3852C110.462 11.8423 111.466 11.5673 112.658 11.5673V11.2793C111.421 11.2793 110.359 11.5653 109.479 12.1446L109.637 12.3852ZM112.658 11.5673C113.773 11.5673 114.738 11.811 115.557 12.2932L115.704 12.0449C114.833 11.5328 113.816 11.2793 112.658 11.2793V11.5673ZM115.557 12.2932C116.378 12.7756 117.016 13.4647 117.473 14.3649L117.73 14.2345C117.249 13.2881 116.574 12.5568 115.704 12.0449L115.557 12.2932ZM117.473 14.3653C117.929 15.257 118.161 16.3272 118.161 17.581H118.449C118.449 16.2921 118.211 15.1748 117.73 14.2341L117.473 14.3653ZM118.161 17.581V28H118.449V17.581H118.161ZM118.305 27.856H113.766V28.144H118.305V27.856ZM113.91 28V18.3906H113.622V28H113.91ZM113.91 18.3916C113.917 17.3654 113.655 16.5446 113.105 15.9491L112.893 16.1446C113.38 16.6713 113.629 17.4131 113.622 18.3896L113.91 18.3916ZM113.105 15.9498C112.555 15.3463 111.799 15.0506 110.858 15.0506V15.3386C111.734 15.3386 112.407 15.6111 112.893 16.1439L113.105 15.9498ZM110.858 15.0506C110.226 15.0506 109.661 15.1868 109.168 15.4632L109.309 15.7144C109.753 15.4652 110.268 15.3386 110.858 15.3386V15.0506ZM109.167 15.4636C108.68 15.7411 108.299 16.1458 108.024 16.6728L108.28 16.8059C108.53 16.3244 108.874 15.962 109.31 15.7139L109.167 15.4636ZM108.024 16.6735C107.756 17.1951 107.621 17.8184 107.614 18.5383L107.902 18.5412C107.909 17.8549 108.037 17.278 108.28 16.8052L108.024 16.6735ZM125.472 33.87L125.523 33.7356L125.523 33.7355L125.472 33.87ZM122.979 32.2401L122.871 32.3362L122.871 32.3362L122.979 32.2401ZM121.775 29.9176L121.756 29.7749L121.601 29.7957L121.634 29.9479L121.775 29.9176ZM125.972 29.353L126.106 29.3005L126.065 29.1952L125.953 29.2103L125.972 29.353ZM126.58 30.2692L126.683 30.1686L126.683 30.1686L126.58 30.2692ZM127.677 30.951L127.729 30.8166L127.727 30.8162L127.677 30.951ZM131.8 30.4929L131.714 30.3769L131.713 30.378L131.8 30.4929ZM132.769 25.1023H132.913V24.9583H132.769V25.1023ZM132.577 25.1023V24.9583H132.483L132.445 25.0446L132.577 25.1023ZM131.683 26.3913L131.785 26.4923L131.785 26.4923L131.683 26.3913ZM124.555 26.9134L124.484 27.0382L124.485 27.0388L124.555 26.9134ZM122.158 24.282L122.029 24.3461L122.03 24.347L122.158 24.282ZM122.18 15.1413L122.05 15.0784L122.05 15.0784L122.18 15.1413ZM124.587 12.3501L124.512 12.2274L124.512 12.2276L124.587 12.3501ZM130.202 11.892L130.137 12.0206L130.138 12.0211L130.202 11.892ZM131.693 13.0426L131.582 13.1336L131.583 13.1355L131.693 13.0426ZM132.577 14.3849L132.447 14.446L132.486 14.5289H132.577V14.3849ZM132.748 14.3849V14.5289H132.892V14.3849H132.748ZM132.748 11.6364V11.4924H132.604V11.6364H132.748ZM137.254 11.6364H137.398V11.4924H137.254V11.6364ZM136.232 31.6541L136.115 31.5694L136.115 31.5694L136.232 31.6541ZM133.398 33.7635L133.346 33.6293L133.345 33.6296L133.398 33.7635ZM131.203 23.8132L131.287 23.9302L131.287 23.93L131.203 23.8132ZM132.375 22.2365L132.241 22.1828L132.241 22.1835L132.375 22.2365ZM132.386 17.272L132.251 17.3232L132.251 17.3236L132.386 17.272ZM127.464 15.642L127.552 15.7557L127.553 15.7549L127.464 15.642ZM126.303 17.304L126.438 17.3539L126.438 17.3539L126.303 17.304ZM126.303 22.2152L126.168 22.2665L126.169 22.2682L126.303 22.2152ZM127.464 23.8026L127.378 23.918L127.379 23.9193L127.464 23.8026ZM129.254 34.3333C127.796 34.3333 126.554 34.1325 125.523 33.7356L125.42 34.0044C126.492 34.4172 127.771 34.6213 129.254 34.6213V34.3333ZM125.523 33.7355C124.496 33.3442 123.686 32.8126 123.086 32.1439L122.871 32.3362C123.508 33.0454 124.359 33.6004 125.42 34.0046L125.523 33.7355ZM123.086 32.1439C122.484 31.4726 122.095 30.7209 121.916 29.8874L121.634 29.9479C121.824 30.8331 122.238 31.6296 122.871 32.3362L123.086 32.1439ZM121.794 30.0603L125.991 29.4957L125.953 29.2103L121.756 29.7749L121.794 30.0603ZM125.838 29.4055C125.974 29.7523 126.188 30.0736 126.476 30.3697L126.683 30.1686C126.417 29.8965 126.226 29.6071 126.106 29.3005L125.838 29.4055ZM126.476 30.3697C126.771 30.672 127.156 30.9096 127.626 31.0858L127.727 30.8162C127.288 30.6515 126.942 30.4346 126.683 30.1686L126.476 30.3697ZM127.625 31.0854C128.108 31.271 128.687 31.3613 129.36 31.3613V31.0733C128.712 31.0733 128.169 30.9861 127.729 30.8166L127.625 31.0854ZM129.36 31.3613C130.371 31.3613 131.217 31.1137 131.887 30.6078L131.713 30.378C131.104 30.838 130.323 31.0733 129.36 31.0733V31.3613ZM131.885 30.6089C132.582 30.0961 132.913 29.2443 132.913 28.0959H132.625C132.625 29.1918 132.31 29.938 131.714 30.3769L131.885 30.6089ZM132.913 28.0959V25.1023H132.625V28.0959H132.913ZM132.769 24.9583H132.577V25.2463H132.769V24.9583ZM132.445 25.0446C132.255 25.4809 131.967 25.8963 131.58 26.2904L131.785 26.4923C132.194 26.0767 132.503 25.6327 132.709 25.16L132.445 25.0446ZM131.58 26.2904C131.198 26.6789 130.704 26.9992 130.094 27.2488L130.203 27.5154C130.843 27.2537 131.371 26.9134 131.785 26.4923L131.58 26.2904ZM130.094 27.2488C129.49 27.4957 128.764 27.6216 127.911 27.6216V27.9096C128.791 27.9096 129.557 27.7798 130.203 27.5154L130.094 27.2488ZM127.911 27.6216C126.706 27.6216 125.612 27.3432 124.626 26.7879L124.485 27.0388C125.516 27.6199 126.659 27.9096 127.911 27.9096V27.6216ZM124.627 26.7885C123.653 26.2291 122.873 25.3746 122.287 24.2169L122.03 24.347C122.637 25.5473 123.455 26.447 124.484 27.0382L124.627 26.7885ZM122.287 24.2179C121.711 23.0576 121.418 21.5828 121.418 19.7862H121.13C121.13 21.6118 121.427 23.1341 122.029 24.3461L122.287 24.2179ZM121.418 19.7862C121.418 17.9472 121.718 16.422 122.309 15.2042L122.05 15.0784C121.434 16.3464 121.13 17.9178 121.13 19.7862H121.418ZM122.309 15.2042C122.903 13.9816 123.689 13.0739 124.663 12.4727L124.512 12.2276C123.483 12.8622 122.664 13.8153 122.05 15.0784L122.309 15.2042ZM124.663 12.4729C125.648 11.8691 126.726 11.5673 127.901 11.5673V11.2793C126.674 11.2793 125.544 11.5954 124.512 12.2274L124.663 12.4729ZM127.901 11.5673C128.801 11.5673 129.544 11.721 130.137 12.0205L130.267 11.7635C129.623 11.4381 128.832 11.2793 127.901 11.2793V11.5673ZM130.138 12.0211C130.74 12.3188 131.22 12.6903 131.582 13.1336L131.805 12.9516C131.413 12.4717 130.899 12.0761 130.266 11.763L130.138 12.0211ZM131.583 13.1355C131.96 13.5824 132.247 14.0193 132.447 14.446L132.708 14.3239C132.495 13.8699 132.193 13.4119 131.803 12.9497L131.583 13.1355ZM132.577 14.5289H132.748V14.2409H132.577V14.5289ZM132.892 14.3849V11.6364H132.604V14.3849H132.892ZM132.748 11.7804H137.254V11.4924H132.748V11.7804ZM137.11 11.6364V28.1598H137.398V11.6364H137.11ZM137.11 28.1598C137.11 29.5277 136.776 30.6612 136.115 31.5694L136.348 31.7388C137.051 30.7721 137.398 29.576 137.398 28.1598H137.11ZM136.115 31.5694C135.451 32.482 134.53 33.1693 133.346 33.6293L133.45 33.8977C134.68 33.4202 135.648 32.7012 136.348 31.7388L136.115 31.5694ZM133.345 33.6296C132.164 34.0975 130.802 34.3333 129.254 34.3333V34.6213C130.831 34.6213 132.23 34.3812 133.451 33.8974L133.345 33.6296ZM129.349 24.5005C130.106 24.5005 130.754 24.3129 131.287 23.9302L131.119 23.6963C130.643 24.0379 130.056 24.2125 129.349 24.2125V24.5005ZM131.287 23.93C131.824 23.5421 132.231 22.9926 132.509 22.2895L132.241 22.1835C131.98 22.844 131.604 23.3457 131.119 23.6965L131.287 23.93ZM132.509 22.2902C132.794 21.58 132.934 20.737 132.934 19.7649H132.646C132.646 20.7104 132.51 21.5151 132.241 22.1828L132.509 22.2902ZM132.934 19.7649C132.934 18.7931 132.798 17.9438 132.52 17.2204L132.251 17.3236C132.513 18.0065 132.646 18.8191 132.646 19.7649H132.934ZM132.52 17.2209C132.243 16.4901 131.837 15.916 131.301 15.5063L131.126 15.7352C131.613 16.1068 131.989 16.6334 132.251 17.3232L132.52 17.2209ZM131.301 15.5063C130.761 15.0939 130.108 14.8908 129.349 14.8908V15.1788C130.054 15.1788 130.643 15.3663 131.126 15.7352L131.301 15.5063ZM129.349 14.8908C128.576 14.8908 127.915 15.1013 127.374 15.5291L127.553 15.7549C128.036 15.3731 128.631 15.1788 129.349 15.1788V14.8908ZM127.375 15.5284C126.839 15.9452 126.438 16.5229 126.168 17.254L126.438 17.3539C126.693 16.6646 127.065 16.1344 127.552 15.7557L127.375 15.5284ZM126.168 17.254C125.898 17.9834 125.764 18.8212 125.764 19.7649H126.052C126.052 18.8478 126.182 18.045 126.438 17.3539L126.168 17.254ZM125.764 19.7649C125.764 20.7224 125.897 21.5573 126.168 22.2665L126.437 22.1639C126.182 21.4952 126.052 20.6967 126.052 19.7649H125.764ZM126.169 22.2682C126.447 22.9707 126.849 23.5231 127.378 23.918L127.55 23.6872C127.07 23.3292 126.698 22.8234 126.436 22.1622L126.169 22.2682ZM127.379 23.9193C127.92 24.3094 128.579 24.5005 129.349 24.5005V24.2125C128.628 24.2125 128.031 24.0344 127.548 23.6858L127.379 23.9193ZM147.894 28H147.75V28.144H147.894V28ZM147.894 6.18182V6.03781H147.75V6.18182H147.894ZM160.646 6.8956L160.588 7.02722L160.588 7.02722L160.646 6.8956ZM163.065 8.87713L162.943 8.95464L162.944 8.9551L163.065 8.87713ZM163.363 14.0227L163.49 14.0905L163.49 14.0899L163.363 14.0227ZM161.957 15.5994L162.038 15.7181L162.039 15.7179L161.957 15.5994ZM159.933 16.4624L159.901 16.3218L159.789 16.3471V16.4624H159.933ZM159.933 16.6754H159.789V16.8134L159.927 16.8193L159.933 16.6754ZM162.266 17.3786L162.192 17.5021L162.192 17.5025L162.266 17.3786ZM164.045 19.2003L163.92 19.2727L163.921 19.2732L164.045 19.2003ZM163.864 25.0703L163.742 24.9933L163.742 24.9936L163.864 25.0703ZM161.339 27.2116L161.278 27.0814L161.278 27.0814L161.339 27.2116ZM152.507 24.2287H152.363V24.3727H152.507V24.2287ZM159.08 23.4936L159.172 23.6043L159.173 23.6037L159.08 23.4936ZM159.528 19.9141L159.406 19.9909L159.406 19.9909L159.528 19.9141ZM158.281 18.8274L158.218 18.9566L158.218 18.9569L158.281 18.8274ZM152.507 18.4332V18.2892H152.363V18.4332H152.507ZM152.507 15.3118H152.363V15.4558H152.507V15.3118ZM157.61 14.9815L157.669 15.1129L157.67 15.1125L157.61 14.9815ZM158.782 14.0227L158.665 13.9396L158.664 13.941L158.782 14.0227ZM158.377 10.6349L158.283 10.7435L158.283 10.7441L158.377 10.6349ZM152.507 9.91051V9.76651H152.363V9.91051H152.507ZM148.038 28V6.18182H147.75V28H148.038ZM147.894 6.32582H156.63V6.03781H147.894V6.32582ZM156.63 6.32582C158.222 6.32582 159.539 6.56195 160.588 7.02722L160.705 6.76397C159.609 6.27754 158.248 6.03781 156.63 6.03781V6.32582ZM160.588 7.02722C161.639 7.4936 162.421 8.13713 162.943 8.95464L163.186 8.79962C162.629 7.92679 161.799 7.2493 160.705 6.76397L160.588 7.02722ZM162.944 8.9551C163.467 9.76768 163.73 10.706 163.73 11.7749H164.018C164.018 10.6562 163.742 9.66271 163.186 8.79916L162.944 8.9551ZM163.73 11.7749C163.73 12.6076 163.564 13.3331 163.236 13.9555L163.49 14.0899C163.844 13.4197 164.018 12.6466 164.018 11.7749H163.73ZM163.236 13.955C162.906 14.5739 162.453 15.082 161.875 15.4809L162.039 15.7179C162.654 15.293 163.138 14.75 163.49 14.0905L163.236 13.955ZM161.875 15.4807C161.302 15.8743 160.645 16.155 159.901 16.3218L159.964 16.6029C160.74 16.4288 161.432 16.1342 162.038 15.7181L161.875 15.4807ZM159.789 16.4624V16.6754H160.077V16.4624H159.789ZM159.927 16.8193C160.733 16.8538 161.488 17.081 162.192 17.5021L162.34 17.255C161.595 16.8096 160.794 16.5681 159.939 16.5316L159.927 16.8193ZM162.192 17.5025C162.901 17.9224 163.477 18.5113 163.92 19.2727L164.169 19.1279C163.703 18.3268 163.093 17.7012 162.339 17.2546L162.192 17.5025ZM163.921 19.2732C164.36 20.0213 164.583 20.9184 164.583 21.9702H164.871C164.871 20.8771 164.639 19.9276 164.169 19.1274L163.921 19.2732ZM164.583 21.9702C164.583 23.1027 164.302 24.109 163.742 24.9933L163.985 25.1473C164.576 24.2134 164.871 23.1529 164.871 21.9702H164.583ZM163.742 24.9936C163.191 25.8689 162.372 26.5657 161.278 27.0814L161.4 27.3419C162.536 26.8065 163.401 26.0757 163.986 25.1471L163.742 24.9936ZM161.278 27.0814C160.187 27.5955 158.835 27.856 157.216 27.856V28.144C158.864 28.144 160.261 27.879 161.4 27.3419L161.278 27.0814ZM157.216 27.856H147.894V28.144H157.216V27.856ZM152.507 24.3727H156.268V24.0847H152.507V24.3727ZM156.268 24.3727C157.566 24.3727 158.545 24.1263 159.172 23.6043L158.988 23.3829C158.437 23.8411 157.541 24.0847 156.268 24.0847V24.3727ZM159.173 23.6037C159.798 23.0771 160.109 22.3751 160.109 21.5121H159.821C159.821 22.2968 159.542 22.9158 158.988 23.3835L159.173 23.6037ZM160.109 21.5121C160.109 20.8842 159.957 20.3243 159.65 19.8372L159.406 19.9909C159.681 20.4271 159.821 20.9326 159.821 21.5121H160.109ZM159.65 19.8372C159.343 19.3507 158.906 18.9712 158.344 18.6979L158.218 18.9569C158.737 19.2091 159.131 19.5542 159.406 19.9909L159.65 19.8372ZM158.345 18.6983C157.788 18.4236 157.13 18.2892 156.374 18.2892V18.5772C157.096 18.5772 157.709 18.7056 158.218 18.9566L158.345 18.6983ZM156.374 18.2892H152.507V18.5772H156.374V18.2892ZM152.363 18.4332V24.2287H152.651V18.4332H152.363ZM152.507 15.4558H155.927V15.1678H152.507V15.4558ZM155.927 15.4558C156.576 15.4558 157.158 15.3427 157.669 15.1129L157.551 14.8502C157.083 15.0607 156.542 15.1678 155.927 15.1678V15.4558ZM157.67 15.1125C158.189 14.8755 158.6 14.5398 158.901 14.1045L158.664 13.941C158.396 14.3296 158.026 14.6331 157.55 14.8506L157.67 15.1125ZM158.9 14.1059C159.21 13.6663 159.363 13.1426 159.363 12.5419H159.075C159.075 13.0918 158.936 13.5553 158.665 13.9396L158.9 14.1059ZM159.363 12.5419C159.363 11.7147 159.066 11.0381 158.471 10.5258L158.283 10.7441C158.81 11.1977 159.075 11.7924 159.075 12.5419H159.363ZM158.472 10.5264C157.883 10.013 157.056 9.76651 156.012 9.76651V10.0545C157.014 10.0545 157.764 10.291 158.283 10.7435L158.472 10.5264ZM156.012 9.76651H152.507V10.0545H156.012V9.76651ZM152.363 9.91051V15.3118H152.651V9.91051H152.363ZM169.518 27.7656L169.459 27.8968L169.46 27.8973L169.518 27.7656ZM167.579 26.1357L167.458 26.2139L167.459 26.2153L167.579 26.1357ZM167.377 21.1392L167.25 21.0708L167.25 21.0708L167.377 21.1392ZM168.74 19.6477L168.662 19.5272L168.662 19.5272L168.74 19.6477ZM170.701 18.7955L170.664 18.6561L170.664 18.6562L170.701 18.7955ZM173.023 18.3906L173.037 18.534L173.038 18.5338L173.023 18.3906ZM175.324 18.1136L175.345 18.2561L175.347 18.2559L175.324 18.1136ZM176.592 17.7088L176.511 17.5895L176.511 17.5895L176.592 17.7088ZM176.347 15.2905L176.252 15.3985L176.253 15.3993L176.347 15.2905ZM172.608 15.2798L172.693 15.3959L172.694 15.395L172.608 15.2798ZM171.649 16.6222L171.637 16.7657L171.754 16.7752L171.787 16.6622L171.649 16.6222ZM167.451 16.2812L167.311 16.2511L167.276 16.4115L167.44 16.4248L167.451 16.2812ZM168.708 13.7031L168.817 13.7972L168.818 13.7967L168.708 13.7031ZM171.127 12.0199L171.18 12.1538L171.18 12.1536L171.127 12.0199ZM177.189 11.7429L177.153 11.8824L177.153 11.8825L177.189 11.7429ZM179.415 12.7337L179.333 12.8521L179.334 12.8525L179.415 12.7337ZM180.96 14.4595L180.833 14.5275L180.833 14.528L180.96 14.4595ZM181.525 28V28.144H181.669V28H181.525ZM177.221 28H177.077V28.144H177.221V28ZM177.221 25.7308H177.365V25.5868H177.221V25.7308ZM177.093 25.7308V25.5868H177.005L176.965 25.665L177.093 25.7308ZM176.038 27.0838L176.133 27.1924L176.134 27.1915L176.038 27.0838ZM174.451 27.9893L174.498 28.1255L174.499 28.125L174.451 27.9893ZM175.377 24.7827L175.443 24.9108L175.445 24.91L175.377 24.7827ZM176.581 23.696L176.46 23.6183L176.46 23.6183L176.581 23.696ZM177.018 20.4148H177.162V20.1494L176.94 20.294L177.018 20.4148ZM176.432 20.6705L176.473 20.8086L176.475 20.8078L176.432 20.6705ZM175.612 20.8729L175.638 21.0145L175.641 21.0138L175.612 20.8729ZM174.696 21.0327L174.716 21.1753L174.719 21.1748L174.696 21.0327ZM173.865 21.1499L173.844 21.0073L173.844 21.0074L173.865 21.1499ZM172.469 21.5227L172.526 21.6551L172.526 21.6551L172.469 21.5227ZM171.542 22.2152L171.656 22.3034L171.657 22.302L171.542 22.2152ZM171.883 24.6974L171.798 24.8138L171.8 24.8152L171.883 24.6974ZM172.309 28.1649C171.282 28.1649 170.372 27.9868 169.576 27.634L169.46 27.8973C170.298 28.2689 171.249 28.453 172.309 28.453V28.1649ZM169.577 27.6344C168.784 27.2758 168.159 26.7499 167.699 26.056L167.459 26.2153C167.951 26.9561 168.618 27.5168 169.459 27.8968L169.577 27.6344ZM167.7 26.0574C167.25 25.3615 167.02 24.4884 167.02 23.4297H166.732C166.732 24.53 166.971 25.4609 167.458 26.2139L167.7 26.0574ZM167.02 23.4297C167.02 22.5377 167.184 21.7992 167.503 21.2076L167.25 21.0708C166.902 21.715 166.732 22.5035 166.732 23.4297H167.02ZM167.503 21.2076C167.826 20.6103 168.264 20.1313 168.819 19.7682L168.662 19.5272C168.066 19.917 167.595 20.4323 167.25 21.0708L167.503 21.2076ZM168.819 19.7682C169.38 19.4011 170.019 19.123 170.737 18.9348L170.664 18.6562C169.919 18.8515 169.251 19.1415 168.662 19.5272L168.819 19.7682ZM170.737 18.9348C171.468 18.7451 172.234 18.6114 173.037 18.534L173.009 18.2473C172.193 18.3261 171.411 18.4623 170.664 18.6561L170.737 18.9348ZM173.038 18.5338C173.991 18.4343 174.76 18.3418 175.345 18.2561L175.303 17.9712C174.724 18.056 173.959 18.1481 173.008 18.2474L173.038 18.5338ZM175.347 18.2559C175.935 18.1626 176.383 18.0237 176.673 17.8281L176.511 17.5895C176.275 17.749 175.878 17.88 175.302 17.9714L175.347 18.2559ZM176.673 17.8281C176.979 17.6209 177.13 17.3108 177.13 16.9205H176.842C176.842 17.2261 176.73 17.4416 176.511 17.5895L176.673 17.8281ZM177.13 16.9205V16.8565H176.842V16.9205H177.13ZM177.13 16.8565C177.13 16.1491 176.905 15.5837 176.441 15.1817L176.253 15.3993C176.641 15.7359 176.842 16.2146 176.842 16.8565H177.13ZM176.442 15.1825C175.988 14.7823 175.353 14.5925 174.557 14.5925V14.8805C175.31 14.8805 175.868 15.06 176.252 15.3985L176.442 15.1825ZM174.557 14.5925C173.72 14.5925 173.037 14.7781 172.521 15.1646L172.694 15.395C173.145 15.0571 173.761 14.8805 174.557 14.8805V14.5925ZM172.522 15.1638C172.016 15.5364 171.676 16.0098 171.51 16.5821L171.787 16.6622C171.934 16.155 172.234 15.7335 172.693 15.3958L172.522 15.1638ZM171.66 16.4786L167.463 16.1377L167.44 16.4248L171.637 16.7657L171.66 16.4786ZM167.592 16.3114C167.8 15.3392 168.209 14.5022 168.817 13.7972L168.599 13.6091C167.958 14.3529 167.528 15.2347 167.311 16.2511L167.592 16.3114ZM168.818 13.7967C169.426 13.0848 170.212 12.5367 171.18 12.1538L171.074 11.886C170.067 12.2843 169.241 12.8584 168.599 13.6096L168.818 13.7967ZM171.18 12.1536C172.154 11.764 173.286 11.5673 174.578 11.5673V11.2793C173.257 11.2793 172.088 11.4803 171.073 11.8862L171.18 12.1536ZM174.578 11.5673C175.476 11.5673 176.334 11.6725 177.153 11.8824L177.224 11.6034C176.381 11.3872 175.499 11.2793 174.578 11.2793V11.5673ZM177.153 11.8825C177.976 12.0917 178.702 12.4153 179.333 12.8521L179.497 12.6153C178.835 12.1571 178.077 11.8202 177.224 11.6033L177.153 11.8825ZM179.334 12.8525C179.968 13.2868 180.467 13.8446 180.833 14.5275L181.087 14.3916C180.7 13.6682 180.169 13.0754 179.496 12.6148L179.334 12.8525ZM180.833 14.528C181.196 15.1987 181.38 16.0085 181.38 16.9631H181.669C181.669 15.9716 181.477 15.1124 181.087 14.391L180.833 14.528ZM181.38 16.9631V28H181.669V16.9631H181.38ZM181.525 27.856H177.221V28.144H181.525V27.856ZM177.365 28V25.7308H177.077V28H177.365ZM177.221 25.5868H177.093V25.8748H177.221V25.5868ZM176.965 25.665C176.71 26.1601 176.37 26.597 175.942 26.9761L176.134 27.1915C176.587 26.7894 176.95 26.3242 177.221 25.7966L176.965 25.665ZM175.943 26.9752C175.518 27.3455 175.005 27.6388 174.402 27.8537L174.499 28.125C175.132 27.8995 175.677 27.5891 176.133 27.1924L175.943 26.9752ZM174.404 27.8532C173.804 28.06 173.107 28.1649 172.309 28.1649V28.453C173.131 28.453 173.861 28.3448 174.498 28.1255L174.404 27.8532ZM173.609 25.3208C174.296 25.3208 174.909 25.1856 175.443 24.9108L175.312 24.6546C174.824 24.9053 174.257 25.0328 173.609 25.0328V25.3208ZM175.445 24.91C175.976 24.6294 176.397 24.2507 176.703 23.7737L176.46 23.6183C176.183 24.0505 175.801 24.3962 175.31 24.6553L175.445 24.91ZM176.703 23.7737C177.01 23.2944 177.162 22.7522 177.162 22.1513H176.874C176.874 22.7009 176.735 23.1885 176.46 23.6183L176.703 23.7737ZM177.162 22.1513V20.4148H176.874V22.1513H177.162ZM176.94 20.294C176.813 20.3765 176.631 20.457 176.389 20.5331L176.475 20.8078C176.73 20.7277 176.939 20.6377 177.097 20.5355L176.94 20.294ZM176.392 20.5323C176.154 20.602 175.885 20.6686 175.582 20.7319L175.641 21.0138C175.95 20.9493 176.227 20.8809 176.473 20.8086L176.392 20.5323ZM175.586 20.7313C175.281 20.7879 174.977 20.841 174.673 20.8905L174.719 21.1748C175.025 21.1249 175.332 21.0715 175.638 21.0144L175.586 20.7313ZM174.676 20.89C174.37 20.9327 174.093 20.9718 173.844 21.0073L173.885 21.2924C174.133 21.2569 174.41 21.2179 174.716 21.1753L174.676 20.89ZM173.844 21.0074C173.302 21.0869 172.824 21.214 172.412 21.3904L172.526 21.6551C172.91 21.4906 173.362 21.3691 173.886 21.2923L173.844 21.0074ZM172.412 21.3904C171.996 21.5688 171.665 21.8138 171.427 22.1283L171.657 22.302C171.86 22.0342 172.147 21.8175 172.526 21.6551L172.412 21.3904ZM171.428 22.127C171.185 22.4408 171.068 22.8286 171.068 23.2805H171.356C171.356 22.8802 171.459 22.5578 171.656 22.3034L171.428 22.127ZM171.068 23.2805C171.068 23.9383 171.309 24.4565 171.798 24.8137L171.968 24.5811C171.562 24.285 171.356 23.8586 171.356 23.2805H171.068ZM171.8 24.8152C172.285 25.1558 172.891 25.3208 173.609 25.3208V25.0328C172.935 25.0328 172.391 24.8783 171.966 24.5796L171.8 24.8152ZM189.584 18.5398L189.44 18.5383V18.5398H189.584ZM189.584 28V28.144H189.728V28H189.584ZM185.045 28H184.901V28.144H185.045V28ZM185.045 11.6364V11.4924H184.901V11.6364H185.045ZM189.371 11.6364H189.515V11.4924H189.371V11.6364ZM189.371 14.5234H189.227V14.6674H189.371V14.5234ZM189.562 14.5234V14.6674H189.662L189.697 14.5747L189.562 14.5234ZM191.384 12.2649L191.463 12.3857L191.463 12.3852L191.384 12.2649ZM197.457 12.169L197.53 12.0449L197.457 12.169ZM199.428 14.2997L199.299 14.3649L199.299 14.3653L199.428 14.2997ZM200.131 28V28.144H200.275V28H200.131ZM195.592 28H195.448V28.144H195.592V28ZM195.592 18.3906L195.448 18.3896V18.3906H195.592ZM194.825 16.0469L194.719 16.1439L194.72 16.1446L194.825 16.0469ZM191.065 15.5888L190.994 15.4632L190.993 15.4636L191.065 15.5888ZM189.978 16.7393L189.85 16.6728L189.85 16.6735L189.978 16.7393ZM189.44 18.5398V28H189.728V18.5398H189.44ZM189.584 27.856H185.045V28.144H189.584V27.856ZM185.189 28V11.6364H184.901V28H185.189ZM185.045 11.7804H189.371V11.4924H185.045V11.7804ZM189.227 11.6364V14.5234H189.515V11.6364H189.227ZM189.371 14.6674H189.562V14.3794H189.371V14.6674ZM189.697 14.5747C190.048 13.6514 190.636 12.923 191.463 12.3857L191.306 12.1442C190.428 12.7148 189.801 13.492 189.428 14.4722L189.697 14.5747ZM191.463 12.3852C192.288 11.8423 193.293 11.5673 194.484 11.5673V11.2793C193.247 11.2793 192.185 11.5653 191.305 12.1446L191.463 12.3852ZM194.484 11.5673C195.599 11.5673 196.564 11.811 197.384 12.2932L197.53 12.0449C196.659 11.5328 195.642 11.2793 194.484 11.2793V11.5673ZM197.384 12.2932C198.204 12.7756 198.842 13.4647 199.299 14.3649L199.556 14.2345C199.075 13.2881 198.4 12.5568 197.53 12.0449L197.384 12.2932ZM199.299 14.3653C199.756 15.257 199.987 16.3272 199.987 17.581H200.275C200.275 16.2921 200.037 15.1748 199.556 14.2341L199.299 14.3653ZM199.987 17.581V28H200.275V17.581H199.987ZM200.131 27.856H195.592V28.144H200.131V27.856ZM195.736 28V18.3906H195.448V28H195.736ZM195.736 18.3916C195.744 17.3654 195.481 16.5446 194.931 15.9491L194.72 16.1446C195.206 16.6713 195.455 17.4131 195.448 18.3896L195.736 18.3916ZM194.932 15.9498C194.381 15.3463 193.625 15.0506 192.684 15.0506V15.3386C193.561 15.3386 194.233 15.6111 194.719 16.1439L194.932 15.9498ZM192.684 15.0506C192.052 15.0506 191.487 15.1868 190.994 15.4632L191.135 15.7144C191.579 15.4652 192.094 15.3386 192.684 15.3386V15.0506ZM190.993 15.4636C190.506 15.7411 190.125 16.1458 189.85 16.6728L190.106 16.8059C190.357 16.3244 190.7 15.962 191.136 15.7139L190.993 15.4636ZM189.85 16.6735C189.582 17.1951 189.447 17.8184 189.44 18.5383L189.728 18.5412C189.735 17.8549 189.863 17.278 190.106 16.8052L189.85 16.6735ZM212.411 11.6364H212.555V11.4924H212.411V11.6364ZM212.411 15.0455V15.1895H212.555V15.0455H212.411ZM202.557 15.0455H202.413V15.1895H202.557V15.0455ZM202.557 11.6364V11.4924H202.413V11.6364H202.557ZM204.794 7.71591V7.57191H204.65V7.71591H204.794ZM209.333 7.71591H209.477V7.57191H209.333V7.71591ZM209.524 23.9517L209.398 24.0207L209.399 24.0223L209.524 23.9517ZM210.057 24.4311L210.003 24.5645L210.004 24.5651L210.057 24.4311ZM211.506 24.5163L211.53 24.6585L211.534 24.6575L211.506 24.5163ZM211.996 24.4205L212.137 24.3907L212.108 24.253L211.969 24.2789L211.996 24.4205ZM212.71 27.7976L212.753 27.935L212.878 27.896L212.851 27.7678L212.71 27.7976ZM211.751 28.0426L211.719 27.9021L211.717 27.9026L211.751 28.0426ZM210.249 28.2237L210.244 28.0798L210.243 28.0798L210.249 28.2237ZM207.372 27.7869L207.318 27.9202L207.318 27.9204L207.372 27.7869ZM205.465 26.2315L205.586 26.1534L205.586 26.1534L205.465 26.2315ZM204.794 23.5682L204.938 23.5691V23.5682H204.794ZM212.267 11.6364V15.0455H212.555V11.6364H212.267ZM212.411 14.9015H202.557V15.1895H212.411V14.9015ZM202.701 15.0455V11.6364H202.413V15.0455H202.701ZM202.557 11.7804H212.411V11.4924H202.557V11.7804ZM204.794 7.85991H209.333V7.57191H204.794V7.85991ZM209.189 7.71591V22.9716H209.477V7.71591H209.189ZM209.189 22.9716C209.189 23.4023 209.254 23.7564 209.398 24.0207L209.651 23.8827C209.539 23.6783 209.477 23.379 209.477 22.9716H209.189ZM209.399 24.0223C209.542 24.2761 209.743 24.4591 210.003 24.5645L210.111 24.2977C209.916 24.2184 209.763 24.0819 209.65 23.8811L209.399 24.0223ZM210.004 24.5651C210.259 24.6653 210.547 24.7136 210.867 24.7136V24.4256C210.576 24.4256 210.324 24.3816 210.11 24.2971L210.004 24.5651ZM210.867 24.7136C211.088 24.7136 211.309 24.6952 211.53 24.6584L211.482 24.3743C211.277 24.4085 211.072 24.4256 210.867 24.4256V24.7136ZM211.534 24.6575C211.747 24.615 211.91 24.5831 212.022 24.562L211.969 24.2789C211.855 24.3004 211.691 24.3325 211.478 24.3751L211.534 24.6575ZM211.855 24.4502L212.569 27.8274L212.851 27.7678L212.137 24.3907L211.855 24.4502ZM212.667 27.6601C212.445 27.7294 212.13 27.8101 211.719 27.9021L211.782 28.1831C212.196 28.0905 212.52 28.0078 212.753 27.935L212.667 27.6601ZM211.717 27.9026C211.317 27.9991 210.827 28.0587 210.244 28.0798L210.254 28.3676C210.85 28.3461 211.361 28.285 211.785 28.1826L211.717 27.9026ZM210.243 28.0798C209.165 28.1218 208.227 27.978 207.426 27.6535L207.318 27.9204C208.165 28.2634 209.145 28.4108 210.254 28.3676L210.243 28.0798ZM207.427 27.6536C206.636 27.3303 206.024 26.8304 205.586 26.1534L205.344 26.3097C205.816 27.039 206.475 27.5759 207.318 27.9202L207.427 27.6536ZM205.586 26.1534C205.151 25.4796 204.931 24.6213 204.938 23.5691L204.65 23.5672C204.643 24.6599 204.871 25.5772 205.344 26.3097L205.586 26.1534ZM204.938 23.5682V7.71591H204.65V23.5682H204.938ZM225.861 21.0327H225.717L225.717 21.0341L225.861 21.0327ZM225.861 11.6364V11.4924H225.717V11.6364H225.861ZM230.4 11.6364H230.544V11.4924H230.4V11.6364ZM230.4 28V28.144H230.544V28H230.4ZM226.042 28H225.898V28.144H226.042V28ZM226.042 25.0277H226.186V24.8837H226.042V25.0277ZM225.872 25.0277V24.8837H225.773L225.738 24.9759L225.872 25.0277ZM224.029 27.3395L223.948 27.2203L223.948 27.2206L224.029 27.3395ZM218.02 27.4673L218.094 27.3438L218.094 27.3438L218.02 27.4673ZM216.071 25.3473L215.942 25.4121L215.943 25.4129L216.071 25.3473ZM215.368 22.0554H215.224L215.224 22.0562L215.368 22.0554ZM215.368 11.6364V11.4924H215.224V11.6364H215.368ZM219.906 11.6364H220.05V11.4924H219.906V11.6364ZM219.906 21.2457H219.762L219.762 21.2468L219.906 21.2457ZM220.684 23.5362L220.79 23.4392L220.79 23.4392L220.684 23.5362ZM224.274 24.005L224.341 24.1326L224.342 24.1318L224.274 24.005ZM225.425 22.8757L225.301 22.8016L225.3 22.8029L225.425 22.8757ZM226.005 21.0327V11.6364H225.717V21.0327H226.005ZM225.861 11.7804H230.4V11.4924H225.861V11.7804ZM230.256 11.6364V28H230.544V11.6364H230.256ZM230.4 27.856H226.042V28.144H230.4V27.856ZM226.186 28V25.0277H225.898V28H226.186ZM226.042 24.8837H225.872V25.1717H226.042V24.8837ZM225.738 24.9759C225.379 25.907 224.783 26.6542 223.948 27.2203L224.11 27.4587C224.993 26.86 225.626 26.066 226.006 25.0795L225.738 24.9759ZM223.948 27.2206C223.124 27.7837 222.113 28.0691 220.907 28.0691V28.3571C222.16 28.3571 223.23 28.06 224.11 27.4584L223.948 27.2206ZM220.907 28.0691C219.836 28.0691 218.9 27.8259 218.094 27.3438L217.946 27.5909C218.803 28.1031 219.791 28.3571 220.907 28.3571V28.0691ZM218.094 27.3438C217.288 26.8613 216.656 26.1754 216.199 25.2817L215.943 25.4129C216.423 26.3515 217.091 27.079 217.946 27.5909L218.094 27.3438ZM216.199 25.2825C215.75 24.3904 215.519 23.3161 215.512 22.0546L215.224 22.0562C215.231 23.3515 215.468 24.4718 215.942 25.4121L216.199 25.2825ZM215.512 22.0554V11.6364H215.224V22.0554H215.512ZM215.368 11.7804H219.906V11.4924H215.368V11.7804ZM219.762 11.6364V21.2457H220.05V11.6364H219.762ZM219.762 21.2468C219.769 22.2382 220.036 23.0393 220.577 23.6332L220.79 23.4392C220.309 22.9109 220.057 22.1851 220.05 21.2447L219.762 21.2468ZM220.577 23.6332C221.12 24.2284 221.846 24.5218 222.74 24.5218V24.2338C221.915 24.2338 221.271 23.9663 220.79 23.4392L220.577 23.6332ZM222.74 24.5218C223.31 24.5218 223.844 24.3921 224.341 24.1326L224.207 23.8773C223.752 24.115 223.264 24.2338 222.74 24.2338V24.5218ZM224.342 24.1318C224.843 23.8628 225.245 23.4669 225.549 22.9485L225.3 22.8029C225.022 23.2788 224.657 23.6358 224.206 23.8781L224.342 24.1318ZM225.548 22.9498C225.863 22.4246 226.013 21.7825 226.005 21.0313L225.717 21.0341C225.724 21.7459 225.583 22.3325 225.301 22.8016L225.548 22.9498Z" fill="#02A95C"/>
<path fill-rule="evenodd" clip-rule="evenodd" d="M5.11277 0H33.8872C35.0517 0 36 0.93129 36 2.07477V32.9252C36 34.0687 35.0517 35 33.8872 35H5.11277C3.94834 35 3 34.0687 3 32.9252V2.07477C3 0.93129 3.94834 0 5.11277 0ZM10.5628 18.6965C11.283 18.7319 14.3321 18.9087 16.0607 19.6868C19.3619 21.1603 19.482 23.966 20.9225 24.6379C23.9356 25.357 21.0306 19.5571 17.8974 17.8478C15.6286 16.6218 11.4631 16.3742 11.0549 16.3624C10.8389 16.3506 10.6708 16.3506 10.5628 16.3506V6.21253C10.5628 5.8353 10.8749 5.5288 11.259 5.5288H27.729C28.1131 5.5288 28.4252 5.8353 28.4252 6.21253V13.2503C27.849 12.6962 27.2728 12.2129 26.7326 11.8946C23.6475 10.0909 17.0931 10.5271 19.2299 12.7198C20.5384 13.6157 23.0833 12.3072 26.0364 14.3702C26.8647 14.9596 27.741 15.9498 28.4252 16.834V28.7875C28.4252 29.1647 28.1131 29.4712 27.729 29.4712H11.259C10.8749 29.4712 10.5628 29.1647 10.5628 28.7875V18.6965Z" fill="url(#paint0_linear_13_12)"/>
<defs>
<linearGradient id="paint0_linear_13_12" x1="2.99987" y1="17.4987" x2="35.9984" y2="17.4987" gradientUnits="userSpaceOnUse">
<stop stop-color="#02A95C"/>
<stop offset="0.65098" stop-color="#44B741"/>
<stop offset="1" stop-color="#87C526"/>
</linearGradient>
</defs>
</svg>
